<?xml version="1.0" encoding="utf-8" standalone="no"?>
<!DOCTYPE svg PUBLIC "-//W3C//DTD SVG 1.1//EN"
  "http://www.w3.org/Graphics/SVG/1.1/DTD/svg11.dtd">
<svg height="648pt" version="1.1" viewBox="0 0 1152 648" width="1152pt" xmlns="http://www.w3.org/2000/svg" xmlns:xlink="http://www.w3.org/1999/xlink">
 <metadata>
  <rdf:RDF xmlns:cc="http://creativecommons.org/ns#" xmlns:dc="http://purl.org/dc/elements/1.1/" xmlns:rdf="http://www.w3.org/1999/02/22-rdf-syntax-ns#">
   <cc:Work>
    <dc:type rdf:resource="http://purl.org/dc/dcmitype/StillImage"/>
    <dc:date>2021-11-13T17:58:46.928898</dc:date>
    <dc:format>image/svg+xml</dc:format>
    <dc:creator>
     <cc:Agent>
      <dc:title>Matplotlib v3.4.3, https://matplotlib.org/</dc:title>
     </cc:Agent>
    </dc:creator>
   </cc:Work>
  </rdf:RDF>
 </metadata>
 <defs>
  <style type="text/css">*{stroke-linecap:butt;stroke-linejoin:round;}</style>
 </defs>
 <g id="figure_1">
  <g id="patch_1">
   <path d="M 0 648 
L 1152 648 
L 1152 0 
L 0 0 
z
" style="fill:none;"/>
  </g>
  <g id="axes_1">
   <g id="patch_2">
    <path d="M 115.925 637.2 
L 1141.2 637.2 
L 1141.2 28.8 
L 115.925 28.8 
z
" style="fill:#ffffff;"/>
   </g>
   <g id="matplotlib.axis_1">
    <g id="ytick_1">
     <g id="line2d_1">
      <defs>
       <path d="M 0 0 
L -3.5 0 
" id="m78f7df5bc2" style="stroke:#000000;stroke-width:0.8;"/>
      </defs>
      <g>
       <use style="stroke:#000000;stroke-width:0.8;" x="115.925" xlink:href="#m78f7df5bc2" y="597.038374"/>
      </g>
     </g>
     <g id="text_1">
      <!-- Ливерпуль -->
      <g transform="translate(40.3375 601.597436)scale(0.12 -0.12)">
       <defs>
        <path d="M 263 0 
L 263 531 
Q 941 678 1134 1191 
Q 1406 1997 1406 3872 
L 1406 4666 
L 4181 4666 
L 4181 0 
L 3550 0 
L 3550 4134 
L 2034 4134 
L 2034 3559 
Q 2034 1791 1716 966 
Q 1409 175 263 0 
z
" id="DejaVuSans-41b" transform="scale(0.015625)"/>
        <path d="M 3578 3500 
L 3578 0 
L 3006 0 
L 3006 2809 
L 1319 0 
L 581 0 
L 581 3500 
L 1153 3500 
L 1153 697 
L 2838 3500 
L 3578 3500 
z
" id="DejaVuSans-438" transform="scale(0.015625)"/>
        <path d="M 1156 1613 
L 1156 459 
L 1975 459 
Q 2369 459 2575 607 
Q 2781 756 2781 1038 
Q 2781 1319 2575 1466 
Q 2369 1613 1975 1613 
L 1156 1613 
z
M 1156 3041 
L 1156 2072 
L 1913 2072 
Q 2238 2072 2444 2201 
Q 2650 2331 2650 2563 
Q 2650 2794 2444 2917 
Q 2238 3041 1913 3041 
L 1156 3041 
z
M 581 3500 
L 1950 3500 
Q 2566 3500 2897 3275 
Q 3228 3050 3228 2634 
Q 3228 2313 3059 2123 
Q 2891 1934 2559 1888 
Q 2956 1813 3175 1575 
Q 3394 1338 3394 981 
Q 3394 513 3033 256 
Q 2672 0 2003 0 
L 581 0 
L 581 3500 
z
" id="DejaVuSans-432" transform="scale(0.015625)"/>
        <path d="M 3597 1894 
L 3597 1613 
L 953 1613 
Q 991 1019 1311 708 
Q 1631 397 2203 397 
Q 2534 397 2845 478 
Q 3156 559 3463 722 
L 3463 178 
Q 3153 47 2828 -22 
Q 2503 -91 2169 -91 
Q 1331 -91 842 396 
Q 353 884 353 1716 
Q 353 2575 817 3079 
Q 1281 3584 2069 3584 
Q 2775 3584 3186 3129 
Q 3597 2675 3597 1894 
z
M 3022 2063 
Q 3016 2534 2758 2815 
Q 2500 3097 2075 3097 
Q 1594 3097 1305 2825 
Q 1016 2553 972 2059 
L 3022 2063 
z
" id="DejaVuSans-435" transform="scale(0.015625)"/>
        <path d="M 1159 525 
L 1159 -1331 
L 581 -1331 
L 581 3500 
L 1159 3500 
L 1159 2969 
Q 1341 3281 1617 3432 
Q 1894 3584 2278 3584 
Q 2916 3584 3314 3078 
Q 3713 2572 3713 1747 
Q 3713 922 3314 415 
Q 2916 -91 2278 -91 
Q 1894 -91 1617 61 
Q 1341 213 1159 525 
z
M 3116 1747 
Q 3116 2381 2855 2742 
Q 2594 3103 2138 3103 
Q 1681 3103 1420 2742 
Q 1159 2381 1159 1747 
Q 1159 1113 1420 752 
Q 1681 391 2138 391 
Q 2594 391 2855 752 
Q 3116 1113 3116 1747 
z
" id="DejaVuSans-440" transform="scale(0.015625)"/>
        <path d="M 3603 3500 
L 3603 0 
L 3025 0 
L 3025 3041 
L 1159 3041 
L 1159 0 
L 581 0 
L 581 3500 
L 3603 3500 
z
" id="DejaVuSans-43f" transform="scale(0.015625)"/>
        <path d="M 2059 -325 
Q 1816 -950 1584 -1140 
Q 1353 -1331 966 -1331 
L 506 -1331 
L 506 -850 
L 844 -850 
Q 1081 -850 1212 -737 
Q 1344 -625 1503 -206 
L 1606 56 
L 191 3500 
L 800 3500 
L 1894 763 
L 2988 3500 
L 3597 3500 
L 2059 -325 
z
" id="DejaVuSans-443" transform="scale(0.015625)"/>
        <path d="M 238 0 
L 238 478 
Q 806 566 981 959 
Q 1194 1513 1194 2928 
L 1194 3500 
L 3559 3500 
L 3559 0 
L 2984 0 
L 2984 3041 
L 1769 3041 
L 1769 2694 
Q 1769 1344 1494 738 
Q 1200 91 238 0 
z
" id="DejaVuSans-43b" transform="scale(0.015625)"/>
        <path d="M 2781 1038 
Q 2781 1319 2576 1466 
Q 2372 1613 1978 1613 
L 1159 1613 
L 1159 459 
L 1978 459 
Q 2372 459 2576 607 
Q 2781 756 2781 1038 
z
M 581 3500 
L 1159 3500 
L 1159 2072 
L 2003 2072 
Q 2672 2072 3033 1817 
Q 3394 1563 3394 1038 
Q 3394 513 3033 256 
Q 2672 0 2003 0 
L 581 0 
L 581 3500 
z
" id="DejaVuSans-44c" transform="scale(0.015625)"/>
       </defs>
       <use xlink:href="#DejaVuSans-41b"/>
       <use x="75.195312" xlink:href="#DejaVuSans-438"/>
       <use x="140.185547" xlink:href="#DejaVuSans-432"/>
       <use x="199.121094" xlink:href="#DejaVuSans-435"/>
       <use x="260.644531" xlink:href="#DejaVuSans-440"/>
       <use x="324.121094" xlink:href="#DejaVuSans-43f"/>
       <use x="389.501953" xlink:href="#DejaVuSans-443"/>
       <use x="448.681641" xlink:href="#DejaVuSans-43b"/>
       <use x="512.597656" xlink:href="#DejaVuSans-44c"/>
      </g>
     </g>
    </g>
    <g id="ytick_2">
     <g id="line2d_2">
      <g>
       <use style="stroke:#000000;stroke-width:0.8;" x="115.925" xlink:href="#m78f7df5bc2" y="569.244861"/>
      </g>
     </g>
     <g id="text_2">
      <!-- Челси -->
      <g transform="translate(71.246875 573.803923)scale(0.12 -0.12)">
       <defs>
        <path d="M 3125 0 
L 3125 1913 
L 1822 1913 
Q 1241 1913 894 2277 
Q 547 2641 547 3384 
L 547 4666 
L 1175 4666 
L 1175 3434 
Q 1175 2938 1369 2691 
Q 1563 2444 1950 2444 
L 3125 2444 
L 3125 4666 
L 3759 4666 
L 3759 0 
L 3125 0 
z
" id="DejaVuSans-427" transform="scale(0.015625)"/>
        <path d="M 3122 3366 
L 3122 2828 
Q 2878 2963 2633 3030 
Q 2388 3097 2138 3097 
Q 1578 3097 1268 2742 
Q 959 2388 959 1747 
Q 959 1106 1268 751 
Q 1578 397 2138 397 
Q 2388 397 2633 464 
Q 2878 531 3122 666 
L 3122 134 
Q 2881 22 2623 -34 
Q 2366 -91 2075 -91 
Q 1284 -91 818 406 
Q 353 903 353 1747 
Q 353 2603 823 3093 
Q 1294 3584 2113 3584 
Q 2378 3584 2631 3529 
Q 2884 3475 3122 3366 
z
" id="DejaVuSans-441" transform="scale(0.015625)"/>
       </defs>
       <use xlink:href="#DejaVuSans-427"/>
       <use x="68.554688" xlink:href="#DejaVuSans-435"/>
       <use x="130.078125" xlink:href="#DejaVuSans-43b"/>
       <use x="193.994141" xlink:href="#DejaVuSans-441"/>
       <use x="248.974609" xlink:href="#DejaVuSans-438"/>
      </g>
     </g>
    </g>
    <g id="ytick_3">
     <g id="line2d_3">
      <g>
       <use style="stroke:#000000;stroke-width:0.8;" x="115.925" xlink:href="#m78f7df5bc2" y="541.451348"/>
      </g>
     </g>
     <g id="text_3">
      <!-- Лестер -->
      <g transform="translate(63.926875 546.01041)scale(0.12 -0.12)">
       <defs>
        <path d="M 188 3500 
L 3541 3500 
L 3541 3041 
L 2147 3041 
L 2147 0 
L 1581 0 
L 1581 3041 
L 188 3041 
L 188 3500 
z
" id="DejaVuSans-442" transform="scale(0.015625)"/>
       </defs>
       <use xlink:href="#DejaVuSans-41b"/>
       <use x="75.195312" xlink:href="#DejaVuSans-435"/>
       <use x="136.71875" xlink:href="#DejaVuSans-441"/>
       <use x="191.699219" xlink:href="#DejaVuSans-442"/>
       <use x="249.951172" xlink:href="#DejaVuSans-435"/>
       <use x="311.474609" xlink:href="#DejaVuSans-440"/>
      </g>
     </g>
    </g>
    <g id="ytick_4">
     <g id="line2d_4">
      <g>
       <use style="stroke:#000000;stroke-width:0.8;" x="115.925" xlink:href="#m78f7df5bc2" y="513.657835"/>
      </g>
     </g>
     <g id="text_4">
      <!-- Вест Хэм -->
      <g transform="translate(52.046875 518.216897)scale(0.12 -0.12)">
       <defs>
        <path d="M 1259 2228 
L 1259 519 
L 2272 519 
Q 2781 519 3026 730 
Q 3272 941 3272 1375 
Q 3272 1813 3026 2020 
Q 2781 2228 2272 2228 
L 1259 2228 
z
M 1259 4147 
L 1259 2741 
L 2194 2741 
Q 2656 2741 2882 2914 
Q 3109 3088 3109 3444 
Q 3109 3797 2882 3972 
Q 2656 4147 2194 4147 
L 1259 4147 
z
M 628 4666 
L 2241 4666 
Q 2963 4666 3353 4366 
Q 3744 4066 3744 3513 
Q 3744 3084 3544 2831 
Q 3344 2578 2956 2516 
Q 3422 2416 3680 2098 
Q 3938 1781 3938 1306 
Q 3938 681 3513 340 
Q 3088 0 2303 0 
L 628 0 
L 628 4666 
z
" id="DejaVuSans-412" transform="scale(0.015625)"/>
        <path id="DejaVuSans-20" transform="scale(0.015625)"/>
        <path d="M 403 4666 
L 1081 4666 
L 2241 2931 
L 3406 4666 
L 4084 4666 
L 2584 2425 
L 4184 0 
L 3506 0 
L 2194 1984 
L 872 0 
L 191 0 
L 1856 2491 
L 403 4666 
z
" id="DejaVuSans-425" transform="scale(0.015625)"/>
        <path d="M 353 666 
Q 847 397 1338 397 
Q 1797 397 2125 664 
Q 2453 931 2513 1613 
L 738 1613 
L 738 2072 
L 2494 2072 
Q 2456 2400 2207 2748 
Q 1959 3097 1338 3097 
Q 856 3097 353 2828 
L 353 3366 
Q 844 3584 1363 3584 
Q 2181 3584 2651 3089 
Q 3122 2594 3122 1747 
Q 3122 903 2664 406 
Q 2206 -91 1403 -91 
Q 813 -91 353 134 
L 353 666 
z
" id="DejaVuSans-44d" transform="scale(0.015625)"/>
        <path d="M 581 3500 
L 1422 3500 
L 2416 1156 
L 3413 3500 
L 4247 3500 
L 4247 0 
L 3669 0 
L 3669 2950 
L 2703 672 
L 2128 672 
L 1159 2950 
L 1159 0 
L 581 0 
L 581 3500 
z
" id="DejaVuSans-43c" transform="scale(0.015625)"/>
       </defs>
       <use xlink:href="#DejaVuSans-412"/>
       <use x="68.603516" xlink:href="#DejaVuSans-435"/>
       <use x="130.126953" xlink:href="#DejaVuSans-441"/>
       <use x="185.107422" xlink:href="#DejaVuSans-442"/>
       <use x="243.359375" xlink:href="#DejaVuSans-20"/>
       <use x="275.146484" xlink:href="#DejaVuSans-425"/>
       <use x="343.652344" xlink:href="#DejaVuSans-44d"/>
       <use x="398.535156" xlink:href="#DejaVuSans-43c"/>
      </g>
     </g>
    </g>
    <g id="ytick_5">
     <g id="line2d_5">
      <g>
       <use style="stroke:#000000;stroke-width:0.8;" x="115.925" xlink:href="#m78f7df5bc2" y="485.864322"/>
      </g>
     </g>
     <g id="text_5">
      <!-- Арсенал -->
      <g transform="translate(56.246875 490.423384)scale(0.12 -0.12)">
       <defs>
        <path d="M 2188 4044 
L 1331 1722 
L 3047 1722 
L 2188 4044 
z
M 1831 4666 
L 2547 4666 
L 4325 0 
L 3669 0 
L 3244 1197 
L 1141 1197 
L 716 0 
L 50 0 
L 1831 4666 
z
" id="DejaVuSans-410" transform="scale(0.015625)"/>
        <path d="M 581 3500 
L 1159 3500 
L 1159 2072 
L 3025 2072 
L 3025 3500 
L 3603 3500 
L 3603 0 
L 3025 0 
L 3025 1613 
L 1159 1613 
L 1159 0 
L 581 0 
L 581 3500 
z
" id="DejaVuSans-43d" transform="scale(0.015625)"/>
        <path d="M 2194 1759 
Q 1497 1759 1228 1600 
Q 959 1441 959 1056 
Q 959 750 1161 570 
Q 1363 391 1709 391 
Q 2188 391 2477 730 
Q 2766 1069 2766 1631 
L 2766 1759 
L 2194 1759 
z
M 3341 1997 
L 3341 0 
L 2766 0 
L 2766 531 
Q 2569 213 2275 61 
Q 1981 -91 1556 -91 
Q 1019 -91 701 211 
Q 384 513 384 1019 
Q 384 1609 779 1909 
Q 1175 2209 1959 2209 
L 2766 2209 
L 2766 2266 
Q 2766 2663 2505 2880 
Q 2244 3097 1772 3097 
Q 1472 3097 1187 3025 
Q 903 2953 641 2809 
L 641 3341 
Q 956 3463 1253 3523 
Q 1550 3584 1831 3584 
Q 2591 3584 2966 3190 
Q 3341 2797 3341 1997 
z
" id="DejaVuSans-430" transform="scale(0.015625)"/>
       </defs>
       <use xlink:href="#DejaVuSans-410"/>
       <use x="68.408203" xlink:href="#DejaVuSans-440"/>
       <use x="131.884766" xlink:href="#DejaVuSans-441"/>
       <use x="186.865234" xlink:href="#DejaVuSans-435"/>
       <use x="248.388672" xlink:href="#DejaVuSans-43d"/>
       <use x="313.769531" xlink:href="#DejaVuSans-430"/>
       <use x="375.048828" xlink:href="#DejaVuSans-43b"/>
      </g>
     </g>
    </g>
    <g id="ytick_6">
     <g id="line2d_6">
      <g>
       <use style="stroke:#000000;stroke-width:0.8;" x="115.925" xlink:href="#m78f7df5bc2" y="458.070809"/>
      </g>
     </g>
     <g id="text_6">
      <!-- Ман.Сити -->
      <g transform="translate(48.593125 462.629871)scale(0.12 -0.12)">
       <defs>
        <path d="M 628 4666 
L 1569 4666 
L 2759 1491 
L 3956 4666 
L 4897 4666 
L 4897 0 
L 4281 0 
L 4281 4097 
L 3078 897 
L 2444 897 
L 1241 4097 
L 1241 0 
L 628 0 
L 628 4666 
z
" id="DejaVuSans-41c" transform="scale(0.015625)"/>
        <path d="M 684 794 
L 1344 794 
L 1344 0 
L 684 0 
L 684 794 
z
" id="DejaVuSans-2e" transform="scale(0.015625)"/>
        <path d="M 4122 4306 
L 4122 3641 
Q 3803 3938 3442 4084 
Q 3081 4231 2675 4231 
Q 1875 4231 1450 3742 
Q 1025 3253 1025 2328 
Q 1025 1406 1450 917 
Q 1875 428 2675 428 
Q 3081 428 3442 575 
Q 3803 722 4122 1019 
L 4122 359 
Q 3791 134 3420 21 
Q 3050 -91 2638 -91 
Q 1578 -91 968 557 
Q 359 1206 359 2328 
Q 359 3453 968 4101 
Q 1578 4750 2638 4750 
Q 3056 4750 3426 4639 
Q 3797 4528 4122 4306 
z
" id="DejaVuSans-421" transform="scale(0.015625)"/>
       </defs>
       <use xlink:href="#DejaVuSans-41c"/>
       <use x="86.279297" xlink:href="#DejaVuSans-430"/>
       <use x="147.558594" xlink:href="#DejaVuSans-43d"/>
       <use x="212.939453" xlink:href="#DejaVuSans-2e"/>
       <use x="244.726562" xlink:href="#DejaVuSans-421"/>
       <use x="314.550781" xlink:href="#DejaVuSans-438"/>
       <use x="379.541016" xlink:href="#DejaVuSans-442"/>
       <use x="437.792969" xlink:href="#DejaVuSans-438"/>
      </g>
     </g>
    </g>
    <g id="ytick_7">
     <g id="line2d_7">
      <g>
       <use style="stroke:#000000;stroke-width:0.8;" x="115.925" xlink:href="#m78f7df5bc2" y="430.277296"/>
      </g>
     </g>
     <g id="text_7">
      <!-- Кристал Пэлас -->
      <g transform="translate(15.32875 434.836358)scale(0.12 -0.12)">
       <defs>
        <path d="M 628 4666 
L 1259 4666 
L 1259 2359 
L 3516 4666 
L 4325 4666 
L 2522 2822 
L 4419 0 
L 3731 0 
L 2113 2403 
L 1259 1531 
L 1259 0 
L 628 0 
L 628 4666 
z
" id="DejaVuSans-41a" transform="scale(0.015625)"/>
        <path d="M 4184 4666 
L 4184 0 
L 3553 0 
L 3553 4134 
L 1259 4134 
L 1259 0 
L 628 0 
L 628 4666 
L 4184 4666 
z
" id="DejaVuSans-41f" transform="scale(0.015625)"/>
       </defs>
       <use xlink:href="#DejaVuSans-41a"/>
       <use x="70.996094" xlink:href="#DejaVuSans-440"/>
       <use x="134.472656" xlink:href="#DejaVuSans-438"/>
       <use x="199.462891" xlink:href="#DejaVuSans-441"/>
       <use x="254.443359" xlink:href="#DejaVuSans-442"/>
       <use x="312.695312" xlink:href="#DejaVuSans-430"/>
       <use x="373.974609" xlink:href="#DejaVuSans-43b"/>
       <use x="437.890625" xlink:href="#DejaVuSans-20"/>
       <use x="469.677734" xlink:href="#DejaVuSans-41f"/>
       <use x="544.873047" xlink:href="#DejaVuSans-44d"/>
       <use x="599.755859" xlink:href="#DejaVuSans-43b"/>
       <use x="663.671875" xlink:href="#DejaVuSans-430"/>
       <use x="724.951172" xlink:href="#DejaVuSans-441"/>
      </g>
     </g>
    </g>
    <g id="ytick_8">
     <g id="line2d_8">
      <g>
       <use style="stroke:#000000;stroke-width:0.8;" x="115.925" xlink:href="#m78f7df5bc2" y="402.483783"/>
      </g>
     </g>
     <g id="text_8">
      <!-- Эвертон -->
      <g transform="translate(56.29375 407.042845)scale(0.12 -0.12)">
       <defs>
        <path d="M 347 1019 
Q 1006 428 1806 428 
Q 2631 428 3003 872 
Q 3375 1316 3444 2063 
L 950 2063 
L 950 2594 
L 3444 2594 
Q 3375 3341 3003 3786 
Q 2631 4231 1806 4231 
Q 1006 4231 347 3641 
L 347 4306 
Q 997 4750 1844 4750 
Q 2891 4750 3500 4101 
Q 4109 3453 4109 2331 
Q 4109 1206 3500 557 
Q 2891 -91 1844 -91 
Q 1009 -91 347 359 
L 347 1019 
z
" id="DejaVuSans-42d" transform="scale(0.015625)"/>
        <path d="M 1959 3097 
Q 1497 3097 1228 2736 
Q 959 2375 959 1747 
Q 959 1119 1226 758 
Q 1494 397 1959 397 
Q 2419 397 2687 759 
Q 2956 1122 2956 1747 
Q 2956 2369 2687 2733 
Q 2419 3097 1959 3097 
z
M 1959 3584 
Q 2709 3584 3137 3096 
Q 3566 2609 3566 1747 
Q 3566 888 3137 398 
Q 2709 -91 1959 -91 
Q 1206 -91 779 398 
Q 353 888 353 1747 
Q 353 2609 779 3096 
Q 1206 3584 1959 3584 
z
" id="DejaVuSans-43e" transform="scale(0.015625)"/>
       </defs>
       <use xlink:href="#DejaVuSans-42d"/>
       <use x="69.824219" xlink:href="#DejaVuSans-432"/>
       <use x="128.759766" xlink:href="#DejaVuSans-435"/>
       <use x="190.283203" xlink:href="#DejaVuSans-440"/>
       <use x="253.759766" xlink:href="#DejaVuSans-442"/>
       <use x="312.011719" xlink:href="#DejaVuSans-43e"/>
       <use x="373.193359" xlink:href="#DejaVuSans-43d"/>
      </g>
     </g>
    </g>
    <g id="ytick_9">
     <g id="line2d_9">
      <g>
       <use style="stroke:#000000;stroke-width:0.8;" x="115.925" xlink:href="#m78f7df5bc2" y="374.69027"/>
      </g>
     </g>
     <g id="text_9">
      <!-- Саутгемптон -->
      <g transform="translate(26.335 379.249332)scale(0.12 -0.12)">
       <defs>
        <path d="M 581 0 
L 581 3500 
L 3050 3500 
L 3050 3041 
L 1159 3041 
L 1159 0 
L 581 0 
z
" id="DejaVuSans-433" transform="scale(0.015625)"/>
       </defs>
       <use xlink:href="#DejaVuSans-421"/>
       <use x="69.824219" xlink:href="#DejaVuSans-430"/>
       <use x="131.103516" xlink:href="#DejaVuSans-443"/>
       <use x="190.283203" xlink:href="#DejaVuSans-442"/>
       <use x="248.535156" xlink:href="#DejaVuSans-433"/>
       <use x="301.074219" xlink:href="#DejaVuSans-435"/>
       <use x="362.597656" xlink:href="#DejaVuSans-43c"/>
       <use x="438.037109" xlink:href="#DejaVuSans-43f"/>
       <use x="503.417969" xlink:href="#DejaVuSans-442"/>
       <use x="561.669922" xlink:href="#DejaVuSans-43e"/>
       <use x="622.851562" xlink:href="#DejaVuSans-43d"/>
      </g>
     </g>
    </g>
    <g id="ytick_10">
     <g id="line2d_10">
      <g>
       <use style="stroke:#000000;stroke-width:0.8;" x="115.925" xlink:href="#m78f7df5bc2" y="346.896757"/>
      </g>
     </g>
     <g id="text_10">
      <!-- Брентфорд -->
      <g transform="translate(37.3375 351.455819)scale(0.12 -0.12)">
       <defs>
        <path d="M 3272 1372 
Q 3272 1806 3026 2017 
Q 2781 2228 2272 2228 
L 1259 2228 
L 1259 519 
L 2272 519 
Q 2781 519 3026 730 
Q 3272 941 3272 1372 
z
M 3609 4666 
L 3609 4147 
L 1259 4147 
L 1259 2747 
L 2303 2747 
Q 3088 2747 3513 2406 
Q 3938 2066 3938 1372 
Q 3938 681 3527 340 
Q 3116 0 2303 0 
L 628 0 
L 628 4666 
L 3609 4666 
z
" id="DejaVuSans-411" transform="scale(0.015625)"/>
        <path d="M 947 1747 
Q 947 1013 1173 702 
Q 1400 391 1784 391 
Q 2091 391 2447 916 
L 2447 2578 
Q 2091 3103 1784 3103 
Q 1400 3103 1173 2792 
Q 947 2481 947 1747 
z
M 2447 -1331 
L 2447 447 
Q 2269 153 2064 31 
Q 1859 -91 1600 -91 
Q 1078 -91 714 392 
Q 350 875 350 1734 
Q 350 2594 714 3089 
Q 1078 3584 1600 3584 
Q 1859 3584 2064 3465 
Q 2269 3347 2447 3053 
L 2447 4666 
L 3025 4666 
L 3025 3053 
Q 3203 3347 3408 3465 
Q 3613 3584 3872 3584 
Q 4394 3584 4758 3089 
Q 5122 2594 5122 1734 
Q 5122 875 4758 392 
Q 4394 -91 3872 -91 
Q 3613 -91 3408 31 
Q 3203 153 3025 447 
L 3025 -1331 
L 2447 -1331 
z
M 4525 1747 
Q 4525 2481 4298 2792 
Q 4072 3103 3688 3103 
Q 3381 3103 3025 2578 
L 3025 916 
Q 3381 391 3688 391 
Q 4072 391 4298 702 
Q 4525 1013 4525 1747 
z
" id="DejaVuSans-444" transform="scale(0.015625)"/>
        <path d="M 1384 459 
L 3053 459 
L 3053 3041 
L 1844 3041 
L 1844 2603 
Q 1844 1316 1475 628 
L 1384 459 
z
M 550 459 
Q 834 584 959 850 
Q 1266 1509 1266 2838 
L 1266 3500 
L 3631 3500 
L 3631 459 
L 4091 459 
L 4091 -884 
L 3631 -884 
L 3631 0 
L 794 0 
L 794 -884 
L 334 -884 
L 334 459 
L 550 459 
z
" id="DejaVuSans-434" transform="scale(0.015625)"/>
       </defs>
       <use xlink:href="#DejaVuSans-411"/>
       <use x="68.603516" xlink:href="#DejaVuSans-440"/>
       <use x="132.080078" xlink:href="#DejaVuSans-435"/>
       <use x="193.603516" xlink:href="#DejaVuSans-43d"/>
       <use x="258.984375" xlink:href="#DejaVuSans-442"/>
       <use x="317.236328" xlink:href="#DejaVuSans-444"/>
       <use x="402.734375" xlink:href="#DejaVuSans-43e"/>
       <use x="463.916016" xlink:href="#DejaVuSans-440"/>
       <use x="527.392578" xlink:href="#DejaVuSans-434"/>
      </g>
     </g>
    </g>
    <g id="ytick_11">
     <g id="line2d_11">
      <g>
       <use style="stroke:#000000;stroke-width:0.8;" x="115.925" xlink:href="#m78f7df5bc2" y="319.103243"/>
      </g>
     </g>
     <g id="text_11">
      <!-- Вулверхэмптон -->
      <g transform="translate(11.08 323.662306)scale(0.12 -0.12)">
       <defs>
        <path d="M 3513 3500 
L 2247 1797 
L 3578 0 
L 2900 0 
L 1881 1375 
L 863 0 
L 184 0 
L 1544 1831 
L 300 3500 
L 978 3500 
L 1906 2253 
L 2834 3500 
L 3513 3500 
z
" id="DejaVuSans-445" transform="scale(0.015625)"/>
       </defs>
       <use xlink:href="#DejaVuSans-412"/>
       <use x="68.603516" xlink:href="#DejaVuSans-443"/>
       <use x="127.783203" xlink:href="#DejaVuSans-43b"/>
       <use x="191.699219" xlink:href="#DejaVuSans-432"/>
       <use x="250.634766" xlink:href="#DejaVuSans-435"/>
       <use x="312.158203" xlink:href="#DejaVuSans-440"/>
       <use x="375.634766" xlink:href="#DejaVuSans-445"/>
       <use x="434.814453" xlink:href="#DejaVuSans-44d"/>
       <use x="489.697266" xlink:href="#DejaVuSans-43c"/>
       <use x="565.136719" xlink:href="#DejaVuSans-43f"/>
       <use x="630.517578" xlink:href="#DejaVuSans-442"/>
       <use x="688.769531" xlink:href="#DejaVuSans-43e"/>
       <use x="749.951172" xlink:href="#DejaVuSans-43d"/>
      </g>
     </g>
    </g>
    <g id="ytick_12">
     <g id="line2d_12">
      <g>
       <use style="stroke:#000000;stroke-width:0.8;" x="115.925" xlink:href="#m78f7df5bc2" y="291.30973"/>
      </g>
     </g>
     <g id="text_12">
      <!-- Норвич -->
      <g transform="translate(62.98 295.868793)scale(0.12 -0.12)">
       <defs>
        <path d="M 628 4666 
L 1259 4666 
L 1259 2753 
L 3553 2753 
L 3553 4666 
L 4184 4666 
L 4184 0 
L 3553 0 
L 3553 2222 
L 1259 2222 
L 1259 0 
L 628 0 
L 628 4666 
z
" id="DejaVuSans-41d" transform="scale(0.015625)"/>
        <path d="M 2625 0 
L 2625 1472 
L 1553 1472 
Q 1075 1472 756 1769 
Q 469 2038 469 2613 
L 469 3500 
L 1044 3500 
L 1044 2666 
Q 1044 2300 1206 2116 
Q 1372 1931 1697 1931 
L 2625 1931 
L 2625 3500 
L 3200 3500 
L 3200 0 
L 2625 0 
z
" id="DejaVuSans-447" transform="scale(0.015625)"/>
       </defs>
       <use xlink:href="#DejaVuSans-41d"/>
       <use x="75.195312" xlink:href="#DejaVuSans-43e"/>
       <use x="136.376953" xlink:href="#DejaVuSans-440"/>
       <use x="199.853516" xlink:href="#DejaVuSans-432"/>
       <use x="258.789062" xlink:href="#DejaVuSans-438"/>
       <use x="323.779297" xlink:href="#DejaVuSans-447"/>
      </g>
     </g>
    </g>
    <g id="ytick_13">
     <g id="line2d_13">
      <g>
       <use style="stroke:#000000;stroke-width:0.8;" x="115.925" xlink:href="#m78f7df5bc2" y="263.516217"/>
      </g>
     </g>
     <g id="text_13">
      <!-- Тоттенхэм -->
      <g transform="translate(42.3025 268.07528)scale(0.12 -0.12)">
       <defs>
        <path d="M -19 4666 
L 3928 4666 
L 3928 4134 
L 2272 4134 
L 2272 0 
L 1638 0 
L 1638 4134 
L -19 4134 
L -19 4666 
z
" id="DejaVuSans-422" transform="scale(0.015625)"/>
       </defs>
       <use xlink:href="#DejaVuSans-422"/>
       <use x="61.083984" xlink:href="#DejaVuSans-43e"/>
       <use x="122.265625" xlink:href="#DejaVuSans-442"/>
       <use x="180.517578" xlink:href="#DejaVuSans-442"/>
       <use x="238.769531" xlink:href="#DejaVuSans-435"/>
       <use x="300.292969" xlink:href="#DejaVuSans-43d"/>
       <use x="365.673828" xlink:href="#DejaVuSans-445"/>
       <use x="424.853516" xlink:href="#DejaVuSans-44d"/>
       <use x="479.736328" xlink:href="#DejaVuSans-43c"/>
      </g>
     </g>
    </g>
    <g id="ytick_14">
     <g id="line2d_14">
      <g>
       <use style="stroke:#000000;stroke-width:0.8;" x="115.925" xlink:href="#m78f7df5bc2" y="235.722704"/>
      </g>
     </g>
     <g id="text_14">
      <!-- Лидс -->
      <g transform="translate(77.2075 240.281767)scale(0.12 -0.12)">
       <use xlink:href="#DejaVuSans-41b"/>
       <use x="75.195312" xlink:href="#DejaVuSans-438"/>
       <use x="140.185547" xlink:href="#DejaVuSans-434"/>
       <use x="209.326172" xlink:href="#DejaVuSans-441"/>
      </g>
     </g>
    </g>
    <g id="ytick_15">
     <g id="line2d_15">
      <g>
       <use style="stroke:#000000;stroke-width:0.8;" x="115.925" xlink:href="#m78f7df5bc2" y="207.929191"/>
      </g>
     </g>
     <g id="text_15">
      <!-- Астон Вилла -->
      <g transform="translate(29.400625 212.488254)scale(0.12 -0.12)">
       <use xlink:href="#DejaVuSans-410"/>
       <use x="68.408203" xlink:href="#DejaVuSans-441"/>
       <use x="123.388672" xlink:href="#DejaVuSans-442"/>
       <use x="181.640625" xlink:href="#DejaVuSans-43e"/>
       <use x="242.822266" xlink:href="#DejaVuSans-43d"/>
       <use x="308.203125" xlink:href="#DejaVuSans-20"/>
       <use x="339.990234" xlink:href="#DejaVuSans-412"/>
       <use x="408.59375" xlink:href="#DejaVuSans-438"/>
       <use x="473.583984" xlink:href="#DejaVuSans-43b"/>
       <use x="537.5" xlink:href="#DejaVuSans-43b"/>
       <use x="601.416016" xlink:href="#DejaVuSans-430"/>
      </g>
     </g>
    </g>
    <g id="ytick_16">
     <g id="line2d_16">
      <g>
       <use style="stroke:#000000;stroke-width:0.8;" x="115.925" xlink:href="#m78f7df5bc2" y="180.135678"/>
      </g>
     </g>
     <g id="text_16">
      <!-- Ман.Юнайтед -->
      <g transform="translate(20.936875 184.694741)scale(0.12 -0.12)">
       <defs>
        <path d="M 4394 4238 
Q 3706 4238 3300 3725 
Q 2897 3213 2897 2328 
Q 2897 1447 3300 934 
Q 3706 422 4394 422 
Q 5081 422 5481 934 
Q 5884 1447 5884 2328 
Q 5884 3213 5481 3725 
Q 5081 4238 4394 4238 
z
M 2241 2597 
Q 2284 3472 2847 4113 
Q 3409 4750 4394 4750 
Q 5375 4750 5963 4094 
Q 6550 3434 6550 2328 
Q 6550 1225 5963 569 
Q 5375 -91 4394 -91 
Q 3409 -91 2847 550 
Q 2284 1191 2241 2066 
L 1291 2066 
L 1291 0 
L 659 0 
L 659 4666 
L 1291 4666 
L 1291 2597 
L 2241 2597 
z
" id="DejaVuSans-42e" transform="scale(0.015625)"/>
        <path d="M 3578 3500 
L 3578 0 
L 3006 0 
L 3006 2809 
L 1319 0 
L 581 0 
L 581 3500 
L 1153 3500 
L 1153 697 
L 2838 3500 
L 3578 3500 
z
M 1102 4833 
L 1471 4833 
Q 1505 4599 1656 4481 
Q 1808 4364 2080 4364 
Q 2349 4364 2499 4480 
Q 2649 4596 2689 4833 
L 3058 4833 
Q 3027 4386 2780 4161 
Q 2533 3936 2080 3936 
Q 1627 3936 1380 4161 
Q 1133 4386 1102 4833 
z
" id="DejaVuSans-439" transform="scale(0.015625)"/>
       </defs>
       <use xlink:href="#DejaVuSans-41c"/>
       <use x="86.279297" xlink:href="#DejaVuSans-430"/>
       <use x="147.558594" xlink:href="#DejaVuSans-43d"/>
       <use x="212.939453" xlink:href="#DejaVuSans-2e"/>
       <use x="244.726562" xlink:href="#DejaVuSans-42e"/>
       <use x="352.685547" xlink:href="#DejaVuSans-43d"/>
       <use x="418.066406" xlink:href="#DejaVuSans-430"/>
       <use x="479.345703" xlink:href="#DejaVuSans-439"/>
       <use x="544.335938" xlink:href="#DejaVuSans-442"/>
       <use x="602.587891" xlink:href="#DejaVuSans-435"/>
       <use x="664.111328" xlink:href="#DejaVuSans-434"/>
      </g>
     </g>
    </g>
    <g id="ytick_17">
     <g id="line2d_17">
      <g>
       <use style="stroke:#000000;stroke-width:0.8;" x="115.925" xlink:href="#m78f7df5bc2" y="152.342165"/>
      </g>
     </g>
     <g id="text_17">
      <!-- Уотфорд -->
      <g transform="translate(53.7625 156.901228)scale(0.12 -0.12)">
       <defs>
        <path d="M 2047 566 
Q 1981 409 1881 291 
Q 1634 0 850 0 
L 609 0 
L 609 531 
L 806 531 
Q 1178 531 1322 616 
Q 1409 669 1466 800 
L 1606 1131 
L 109 4666 
L 788 4666 
L 1947 1928 
L 3113 4666 
L 3791 4666 
L 2047 566 
z
" id="DejaVuSans-423" transform="scale(0.015625)"/>
       </defs>
       <use xlink:href="#DejaVuSans-423"/>
       <use x="60.9375" xlink:href="#DejaVuSans-43e"/>
       <use x="122.119141" xlink:href="#DejaVuSans-442"/>
       <use x="180.371094" xlink:href="#DejaVuSans-444"/>
       <use x="265.869141" xlink:href="#DejaVuSans-43e"/>
       <use x="327.050781" xlink:href="#DejaVuSans-440"/>
       <use x="390.527344" xlink:href="#DejaVuSans-434"/>
      </g>
     </g>
    </g>
    <g id="ytick_18">
     <g id="line2d_18">
      <g>
       <use style="stroke:#000000;stroke-width:0.8;" x="115.925" xlink:href="#m78f7df5bc2" y="124.548652"/>
      </g>
     </g>
     <g id="text_18">
      <!-- Бёрнли -->
      <g transform="translate(62.37625 129.107715)scale(0.12 -0.12)">
       <defs>
        <path d="M 3597 1894 
L 3597 1613 
L 953 1613 
Q 991 1019 1311 708 
Q 1631 397 2203 397 
Q 2534 397 2845 478 
Q 3156 559 3463 722 
L 3463 178 
Q 3153 47 2828 -22 
Q 2503 -91 2169 -91 
Q 1331 -91 842 396 
Q 353 884 353 1716 
Q 353 2575 817 3079 
Q 1281 3584 2069 3584 
Q 2775 3584 3186 3129 
Q 3597 2675 3597 1894 
z
M 3022 2063 
Q 3016 2534 2758 2815 
Q 2500 3097 2075 3097 
Q 1594 3097 1305 2825 
Q 1016 2553 972 2059 
L 3022 2063 
z
M 2366 4850 
L 3000 4850 
L 3000 4219 
L 2366 4219 
L 2366 4850 
z
M 1144 4850 
L 1778 4850 
L 1778 4219 
L 1144 4219 
L 1144 4850 
z
" id="DejaVuSans-451" transform="scale(0.015625)"/>
       </defs>
       <use xlink:href="#DejaVuSans-411"/>
       <use x="68.603516" xlink:href="#DejaVuSans-451"/>
       <use x="130.126953" xlink:href="#DejaVuSans-440"/>
       <use x="193.603516" xlink:href="#DejaVuSans-43d"/>
       <use x="258.984375" xlink:href="#DejaVuSans-43b"/>
       <use x="322.900391" xlink:href="#DejaVuSans-438"/>
      </g>
     </g>
    </g>
    <g id="ytick_19">
     <g id="line2d_19">
      <g>
       <use style="stroke:#000000;stroke-width:0.8;" x="115.925" xlink:href="#m78f7df5bc2" y="96.755139"/>
      </g>
     </g>
     <g id="text_19">
      <!-- Брайтон -->
      <g transform="translate(55.744375 101.314202)scale(0.12 -0.12)">
       <use xlink:href="#DejaVuSans-411"/>
       <use x="68.603516" xlink:href="#DejaVuSans-440"/>
       <use x="132.080078" xlink:href="#DejaVuSans-430"/>
       <use x="193.359375" xlink:href="#DejaVuSans-439"/>
       <use x="258.349609" xlink:href="#DejaVuSans-442"/>
       <use x="316.601562" xlink:href="#DejaVuSans-43e"/>
       <use x="377.783203" xlink:href="#DejaVuSans-43d"/>
      </g>
     </g>
    </g>
    <g id="ytick_20">
     <g id="line2d_20">
      <g>
       <use style="stroke:#000000;stroke-width:0.8;" x="115.925" xlink:href="#m78f7df5bc2" y="68.961626"/>
      </g>
     </g>
     <g id="text_20">
      <!-- Ньюкасл -->
      <g transform="translate(53.854375 73.520689)scale(0.12 -0.12)">
       <defs>
        <path d="M 3431 3097 
Q 2969 3097 2700 2736 
Q 2431 2375 2431 1747 
Q 2431 1119 2698 758 
Q 2966 397 3431 397 
Q 3891 397 4159 759 
Q 4428 1122 4428 1747 
Q 4428 2369 4159 2733 
Q 3891 3097 3431 3097 
z
M 1844 2103 
Q 1903 2697 2292 3140 
Q 2681 3584 3431 3584 
Q 4181 3584 4609 3096 
Q 5038 2609 5038 1747 
Q 5038 888 4609 398 
Q 4181 -91 3431 -91 
Q 2678 -91 2267 381 
Q 1856 853 1828 1628 
L 1178 1628 
L 1178 0 
L 603 0 
L 603 3500 
L 1178 3500 
L 1178 2103 
L 1844 2103 
z
" id="DejaVuSans-44e" transform="scale(0.015625)"/>
        <path d="M 581 3500 
L 1153 3500 
L 1153 1856 
L 2775 3500 
L 3481 3500 
L 2144 2147 
L 3653 0 
L 3009 0 
L 1769 1766 
L 1153 1141 
L 1153 0 
L 581 0 
L 581 3500 
z
" id="DejaVuSans-43a" transform="scale(0.015625)"/>
       </defs>
       <use xlink:href="#DejaVuSans-41d"/>
       <use x="75.195312" xlink:href="#DejaVuSans-44c"/>
       <use x="134.130859" xlink:href="#DejaVuSans-44e"/>
       <use x="218.310547" xlink:href="#DejaVuSans-43a"/>
       <use x="278.710938" xlink:href="#DejaVuSans-430"/>
       <use x="339.990234" xlink:href="#DejaVuSans-441"/>
       <use x="394.970703" xlink:href="#DejaVuSans-43b"/>
      </g>
     </g>
    </g>
   </g>
   <g id="patch_3">
    <path clip-path="url(#pb0b72a7ad0)" d="M 115.925 609.545455 
L 482.094643 609.545455 
L 482.094643 584.531293 
L 115.925 584.531293 
z
" style="fill:#808080;"/>
   </g>
   <g id="patch_4">
    <path clip-path="url(#pb0b72a7ad0)" d="M 115.925 581.751942 
L 512.60878 581.751942 
L 512.60878 556.73778 
L 115.925 556.73778 
z
" style="fill:#808080;"/>
   </g>
   <g id="patch_5">
    <path clip-path="url(#pb0b72a7ad0)" d="M 115.925 553.958429 
L 543.122917 553.958429 
L 543.122917 528.944267 
L 115.925 528.944267 
z
" style="fill:#808080;"/>
   </g>
   <g id="patch_6">
    <path clip-path="url(#pb0b72a7ad0)" d="M 115.925 526.164915 
L 573.637054 526.164915 
L 573.637054 501.150754 
L 115.925 501.150754 
z
" style="fill:#808080;"/>
   </g>
   <g id="patch_7">
    <path clip-path="url(#pb0b72a7ad0)" d="M 115.925 498.371402 
L 634.665327 498.371402 
L 634.665327 473.357241 
L 115.925 473.357241 
z
" style="fill:#808080;"/>
   </g>
   <g id="patch_8">
    <path clip-path="url(#pb0b72a7ad0)" d="M 115.925 470.577889 
L 665.179464 470.577889 
L 665.179464 445.563728 
L 115.925 445.563728 
z
" style="fill:#808080;"/>
   </g>
   <g id="patch_9">
    <path clip-path="url(#pb0b72a7ad0)" d="M 115.925 442.784376 
L 695.693601 442.784376 
L 695.693601 417.770215 
L 115.925 417.770215 
z
" style="fill:#808080;"/>
   </g>
   <g id="patch_10">
    <path clip-path="url(#pb0b72a7ad0)" d="M 115.925 414.990863 
L 726.207738 414.990863 
L 726.207738 389.976702 
L 115.925 389.976702 
z
" style="fill:#7c1eff;stroke:#7c1eff;stroke-linejoin:miter;"/>
   </g>
   <g id="patch_11">
    <path clip-path="url(#pb0b72a7ad0)" d="M 115.925 387.19735 
L 756.721875 387.19735 
L 756.721875 362.183189 
L 115.925 362.183189 
z
" style="fill:#808080;"/>
   </g>
   <g id="patch_12">
    <path clip-path="url(#pb0b72a7ad0)" d="M 115.925 359.403837 
L 756.721875 359.403837 
L 756.721875 334.389676 
L 115.925 334.389676 
z
" style="fill:#808080;"/>
   </g>
   <g id="patch_13">
    <path clip-path="url(#pb0b72a7ad0)" d="M 115.925 331.610324 
L 787.236012 331.610324 
L 787.236012 306.596163 
L 115.925 306.596163 
z
" style="fill:#808080;"/>
   </g>
   <g id="patch_14">
    <path clip-path="url(#pb0b72a7ad0)" d="M 115.925 303.816811 
L 787.236012 303.816811 
L 787.236012 278.80265 
L 115.925 278.80265 
z
" style="fill:#808080;"/>
   </g>
   <g id="patch_15">
    <path clip-path="url(#pb0b72a7ad0)" d="M 115.925 276.023298 
L 817.750149 276.023298 
L 817.750149 251.009137 
L 115.925 251.009137 
z
" style="fill:#808080;"/>
   </g>
   <g id="patch_16">
    <path clip-path="url(#pb0b72a7ad0)" d="M 115.925 248.229785 
L 848.264286 248.229785 
L 848.264286 223.215624 
L 115.925 223.215624 
z
" style="fill:#808080;"/>
   </g>
   <g id="patch_17">
    <path clip-path="url(#pb0b72a7ad0)" d="M 115.925 220.436272 
L 878.778423 220.436272 
L 878.778423 195.422111 
L 115.925 195.422111 
z
" style="fill:#808080;"/>
   </g>
   <g id="patch_18">
    <path clip-path="url(#pb0b72a7ad0)" d="M 115.925 192.642759 
L 878.778423 192.642759 
L 878.778423 167.628598 
L 115.925 167.628598 
z
" style="fill:#d20222;stroke:#d20222;stroke-linejoin:miter;"/>
   </g>
   <g id="patch_19">
    <path clip-path="url(#pb0b72a7ad0)" d="M 115.925 164.849246 
L 909.29256 164.849246 
L 909.29256 139.835085 
L 115.925 139.835085 
z
" style="fill:#808080;"/>
   </g>
   <g id="patch_20">
    <path clip-path="url(#pb0b72a7ad0)" d="M 115.925 137.055733 
L 909.29256 137.055733 
L 909.29256 112.041571 
L 115.925 112.041571 
z
" style="fill:#808080;"/>
   </g>
   <g id="patch_21">
    <path clip-path="url(#pb0b72a7ad0)" d="M 115.925 109.26222 
L 1000.83497 109.26222 
L 1000.83497 84.248058 
L 115.925 84.248058 
z
" style="fill:#808080;"/>
   </g>
   <g id="patch_22">
    <path clip-path="url(#pb0b72a7ad0)" d="M 115.925 81.468707 
L 1092.377381 81.468707 
L 1092.377381 56.454545 
L 115.925 56.454545 
z
" style="fill:#808080;"/>
   </g>
   <g id="patch_23">
    <path d="M 115.925 637.2 
L 115.925 28.8 
" style="fill:none;stroke:#dddddd;stroke-linecap:square;stroke-linejoin:miter;stroke-width:0.8;"/>
   </g>
   <g id="text_21">
    <!-- 12 -->
    <g style="fill:#808080;" transform="translate(491.248884 599.797749)scale(0.1 -0.1)">
     <defs>
      <path d="M 750 831 
L 1813 831 
L 1813 3847 
L 722 3622 
L 722 4441 
L 1806 4666 
L 2950 4666 
L 2950 831 
L 4013 831 
L 4013 0 
L 750 0 
L 750 831 
z
" id="DejaVuSans-Bold-31" transform="scale(0.015625)"/>
      <path d="M 1844 884 
L 3897 884 
L 3897 0 
L 506 0 
L 506 884 
L 2209 2388 
Q 2438 2594 2547 2791 
Q 2656 2988 2656 3200 
Q 2656 3528 2436 3728 
Q 2216 3928 1850 3928 
Q 1569 3928 1234 3808 
Q 900 3688 519 3450 
L 519 4475 
Q 925 4609 1322 4679 
Q 1719 4750 2100 4750 
Q 2938 4750 3402 4381 
Q 3866 4013 3866 3353 
Q 3866 2972 3669 2642 
Q 3472 2313 2841 1759 
L 1844 884 
z
" id="DejaVuSans-Bold-32" transform="scale(0.015625)"/>
     </defs>
     <use xlink:href="#DejaVuSans-Bold-31"/>
     <use x="69.580078" xlink:href="#DejaVuSans-Bold-32"/>
    </g>
   </g>
   <g id="text_22">
    <!-- 13 -->
    <g style="fill:#808080;" transform="translate(521.763021 572.004236)scale(0.1 -0.1)">
     <defs>
      <path d="M 2981 2516 
Q 3453 2394 3698 2092 
Q 3944 1791 3944 1325 
Q 3944 631 3412 270 
Q 2881 -91 1863 -91 
Q 1503 -91 1142 -33 
Q 781 25 428 141 
L 428 1069 
Q 766 900 1098 814 
Q 1431 728 1753 728 
Q 2231 728 2486 893 
Q 2741 1059 2741 1369 
Q 2741 1688 2480 1852 
Q 2219 2016 1709 2016 
L 1228 2016 
L 1228 2791 
L 1734 2791 
Q 2188 2791 2409 2933 
Q 2631 3075 2631 3366 
Q 2631 3634 2415 3781 
Q 2200 3928 1806 3928 
Q 1516 3928 1219 3862 
Q 922 3797 628 3669 
L 628 4550 
Q 984 4650 1334 4700 
Q 1684 4750 2022 4750 
Q 2931 4750 3382 4451 
Q 3834 4153 3834 3553 
Q 3834 3144 3618 2883 
Q 3403 2622 2981 2516 
z
" id="DejaVuSans-Bold-33" transform="scale(0.015625)"/>
     </defs>
     <use xlink:href="#DejaVuSans-Bold-31"/>
     <use x="69.580078" xlink:href="#DejaVuSans-Bold-33"/>
    </g>
   </g>
   <g id="text_23">
    <!-- 14 -->
    <g style="fill:#808080;" transform="translate(552.277158 544.210723)scale(0.1 -0.1)">
     <defs>
      <path d="M 2356 3675 
L 1038 1722 
L 2356 1722 
L 2356 3675 
z
M 2156 4666 
L 3494 4666 
L 3494 1722 
L 4159 1722 
L 4159 850 
L 3494 850 
L 3494 0 
L 2356 0 
L 2356 850 
L 288 850 
L 288 1881 
L 2156 4666 
z
" id="DejaVuSans-Bold-34" transform="scale(0.015625)"/>
     </defs>
     <use xlink:href="#DejaVuSans-Bold-31"/>
     <use x="69.580078" xlink:href="#DejaVuSans-Bold-34"/>
    </g>
   </g>
   <g id="text_24">
    <!-- 15 -->
    <g style="fill:#808080;" transform="translate(582.791295 516.41721)scale(0.1 -0.1)">
     <defs>
      <path d="M 678 4666 
L 3669 4666 
L 3669 3781 
L 1638 3781 
L 1638 3059 
Q 1775 3097 1914 3117 
Q 2053 3138 2203 3138 
Q 3056 3138 3531 2711 
Q 4006 2284 4006 1522 
Q 4006 766 3489 337 
Q 2972 -91 2053 -91 
Q 1656 -91 1267 -14 
Q 878 63 494 219 
L 494 1166 
Q 875 947 1217 837 
Q 1559 728 1863 728 
Q 2300 728 2551 942 
Q 2803 1156 2803 1522 
Q 2803 1891 2551 2103 
Q 2300 2316 1863 2316 
Q 1603 2316 1309 2248 
Q 1016 2181 678 2041 
L 678 4666 
z
" id="DejaVuSans-Bold-35" transform="scale(0.015625)"/>
     </defs>
     <use xlink:href="#DejaVuSans-Bold-31"/>
     <use x="69.580078" xlink:href="#DejaVuSans-Bold-35"/>
    </g>
   </g>
   <g id="text_25">
    <!-- 17 -->
    <g style="fill:#808080;" transform="translate(643.819568 488.623697)scale(0.1 -0.1)">
     <defs>
      <path d="M 428 4666 
L 3944 4666 
L 3944 3988 
L 2125 0 
L 953 0 
L 2675 3781 
L 428 3781 
L 428 4666 
z
" id="DejaVuSans-Bold-37" transform="scale(0.015625)"/>
     </defs>
     <use xlink:href="#DejaVuSans-Bold-31"/>
     <use x="69.580078" xlink:href="#DejaVuSans-Bold-37"/>
    </g>
   </g>
   <g id="text_26">
    <!-- 18 -->
    <g style="fill:#808080;" transform="translate(674.333705 460.830184)scale(0.1 -0.1)">
     <defs>
      <path d="M 2228 2088 
Q 1891 2088 1709 1903 
Q 1528 1719 1528 1375 
Q 1528 1031 1709 848 
Q 1891 666 2228 666 
Q 2563 666 2741 848 
Q 2919 1031 2919 1375 
Q 2919 1722 2741 1905 
Q 2563 2088 2228 2088 
z
M 1350 2484 
Q 925 2613 709 2878 
Q 494 3144 494 3541 
Q 494 4131 934 4440 
Q 1375 4750 2228 4750 
Q 3075 4750 3515 4442 
Q 3956 4134 3956 3541 
Q 3956 3144 3739 2878 
Q 3522 2613 3097 2484 
Q 3572 2353 3814 2058 
Q 4056 1763 4056 1313 
Q 4056 619 3595 264 
Q 3134 -91 2228 -91 
Q 1319 -91 855 264 
Q 391 619 391 1313 
Q 391 1763 633 2058 
Q 875 2353 1350 2484 
z
M 1631 3419 
Q 1631 3141 1786 2991 
Q 1941 2841 2228 2841 
Q 2509 2841 2662 2991 
Q 2816 3141 2816 3419 
Q 2816 3697 2662 3845 
Q 2509 3994 2228 3994 
Q 1941 3994 1786 3844 
Q 1631 3694 1631 3419 
z
" id="DejaVuSans-Bold-38" transform="scale(0.015625)"/>
     </defs>
     <use xlink:href="#DejaVuSans-Bold-31"/>
     <use x="69.580078" xlink:href="#DejaVuSans-Bold-38"/>
    </g>
   </g>
   <g id="text_27">
    <!-- 19 -->
    <g style="fill:#808080;" transform="translate(704.847842 433.036671)scale(0.1 -0.1)">
     <defs>
      <path d="M 641 103 
L 641 966 
Q 928 831 1190 764 
Q 1453 697 1709 697 
Q 2247 697 2547 995 
Q 2847 1294 2900 1881 
Q 2688 1725 2447 1647 
Q 2206 1569 1925 1569 
Q 1209 1569 770 1986 
Q 331 2403 331 3084 
Q 331 3838 820 4291 
Q 1309 4744 2131 4744 
Q 3044 4744 3544 4128 
Q 4044 3513 4044 2388 
Q 4044 1231 3459 570 
Q 2875 -91 1856 -91 
Q 1528 -91 1228 -42 
Q 928 6 641 103 
z
M 2125 2350 
Q 2441 2350 2600 2554 
Q 2759 2759 2759 3169 
Q 2759 3575 2600 3781 
Q 2441 3988 2125 3988 
Q 1809 3988 1650 3781 
Q 1491 3575 1491 3169 
Q 1491 2759 1650 2554 
Q 1809 2350 2125 2350 
z
" id="DejaVuSans-Bold-39" transform="scale(0.015625)"/>
     </defs>
     <use xlink:href="#DejaVuSans-Bold-31"/>
     <use x="69.580078" xlink:href="#DejaVuSans-Bold-39"/>
    </g>
   </g>
   <g id="text_28">
    <!-- 20 -->
    <g style="fill:#7c1eff;" transform="translate(735.361979 405.243158)scale(0.1 -0.1)">
     <defs>
      <path d="M 2944 2338 
Q 2944 3213 2780 3570 
Q 2616 3928 2228 3928 
Q 1841 3928 1675 3570 
Q 1509 3213 1509 2338 
Q 1509 1453 1675 1090 
Q 1841 728 2228 728 
Q 2613 728 2778 1090 
Q 2944 1453 2944 2338 
z
M 4147 2328 
Q 4147 1169 3647 539 
Q 3147 -91 2228 -91 
Q 1306 -91 806 539 
Q 306 1169 306 2328 
Q 306 3491 806 4120 
Q 1306 4750 2228 4750 
Q 3147 4750 3647 4120 
Q 4147 3491 4147 2328 
z
" id="DejaVuSans-Bold-30" transform="scale(0.015625)"/>
     </defs>
     <use xlink:href="#DejaVuSans-Bold-32"/>
     <use x="69.580078" xlink:href="#DejaVuSans-Bold-30"/>
    </g>
   </g>
   <g id="text_29">
    <!-- 21 -->
    <g style="fill:#808080;" transform="translate(765.876116 377.449645)scale(0.1 -0.1)">
     <use xlink:href="#DejaVuSans-Bold-32"/>
     <use x="69.580078" xlink:href="#DejaVuSans-Bold-31"/>
    </g>
   </g>
   <g id="text_30">
    <!-- 21 -->
    <g style="fill:#808080;" transform="translate(765.876116 349.656132)scale(0.1 -0.1)">
     <use xlink:href="#DejaVuSans-Bold-32"/>
     <use x="69.580078" xlink:href="#DejaVuSans-Bold-31"/>
    </g>
   </g>
   <g id="text_31">
    <!-- 22 -->
    <g style="fill:#808080;" transform="translate(796.390253 321.862618)scale(0.1 -0.1)">
     <use xlink:href="#DejaVuSans-Bold-32"/>
     <use x="69.580078" xlink:href="#DejaVuSans-Bold-32"/>
    </g>
   </g>
   <g id="text_32">
    <!-- 22 -->
    <g style="fill:#808080;" transform="translate(796.390253 294.069105)scale(0.1 -0.1)">
     <use xlink:href="#DejaVuSans-Bold-32"/>
     <use x="69.580078" xlink:href="#DejaVuSans-Bold-32"/>
    </g>
   </g>
   <g id="text_33">
    <!-- 23 -->
    <g style="fill:#808080;" transform="translate(826.90439 266.275592)scale(0.1 -0.1)">
     <use xlink:href="#DejaVuSans-Bold-32"/>
     <use x="69.580078" xlink:href="#DejaVuSans-Bold-33"/>
    </g>
   </g>
   <g id="text_34">
    <!-- 24 -->
    <g style="fill:#808080;" transform="translate(857.418527 238.482079)scale(0.1 -0.1)">
     <use xlink:href="#DejaVuSans-Bold-32"/>
     <use x="69.580078" xlink:href="#DejaVuSans-Bold-34"/>
    </g>
   </g>
   <g id="text_35">
    <!-- 25 -->
    <g style="fill:#808080;" transform="translate(887.932664 210.688566)scale(0.1 -0.1)">
     <use xlink:href="#DejaVuSans-Bold-32"/>
     <use x="69.580078" xlink:href="#DejaVuSans-Bold-35"/>
    </g>
   </g>
   <g id="text_36">
    <!-- 25 -->
    <g style="fill:#d20222;" transform="translate(887.932664 182.895053)scale(0.1 -0.1)">
     <use xlink:href="#DejaVuSans-Bold-32"/>
     <use x="69.580078" xlink:href="#DejaVuSans-Bold-35"/>
    </g>
   </g>
   <g id="text_37">
    <!-- 26 -->
    <g style="fill:#808080;" transform="translate(918.446801 155.10154)scale(0.1 -0.1)">
     <defs>
      <path d="M 2316 2303 
Q 2000 2303 1842 2098 
Q 1684 1894 1684 1484 
Q 1684 1075 1842 870 
Q 2000 666 2316 666 
Q 2634 666 2792 870 
Q 2950 1075 2950 1484 
Q 2950 1894 2792 2098 
Q 2634 2303 2316 2303 
z
M 3803 4544 
L 3803 3681 
Q 3506 3822 3243 3889 
Q 2981 3956 2731 3956 
Q 2194 3956 1894 3657 
Q 1594 3359 1544 2772 
Q 1750 2925 1990 3001 
Q 2231 3078 2516 3078 
Q 3231 3078 3670 2659 
Q 4109 2241 4109 1563 
Q 4109 813 3618 361 
Q 3128 -91 2303 -91 
Q 1394 -91 895 523 
Q 397 1138 397 2266 
Q 397 3422 980 4083 
Q 1563 4744 2578 4744 
Q 2900 4744 3203 4694 
Q 3506 4644 3803 4544 
z
" id="DejaVuSans-Bold-36" transform="scale(0.015625)"/>
     </defs>
     <use xlink:href="#DejaVuSans-Bold-32"/>
     <use x="69.580078" xlink:href="#DejaVuSans-Bold-36"/>
    </g>
   </g>
   <g id="text_38">
    <!-- 26 -->
    <g style="fill:#808080;" transform="translate(918.446801 127.308027)scale(0.1 -0.1)">
     <use xlink:href="#DejaVuSans-Bold-32"/>
     <use x="69.580078" xlink:href="#DejaVuSans-Bold-36"/>
    </g>
   </g>
   <g id="text_39">
    <!-- 29 -->
    <g style="fill:#808080;" transform="translate(1009.989211 99.514514)scale(0.1 -0.1)">
     <use xlink:href="#DejaVuSans-Bold-32"/>
     <use x="69.580078" xlink:href="#DejaVuSans-Bold-39"/>
    </g>
   </g>
   <g id="text_40">
    <!-- 32 -->
    <g style="fill:#808080;" transform="translate(1101.531622 71.721001)scale(0.1 -0.1)">
     <use xlink:href="#DejaVuSans-Bold-33"/>
     <use x="69.580078" xlink:href="#DejaVuSans-Bold-32"/>
    </g>
   </g>
   <g id="text_41">
    <!-- Желтых карточек -->
    <g style="fill:#333333;" transform="translate(534.139844 25.056563)scale(0.18 -0.18)">
     <defs>
      <path d="M 94 0 
L 2003 2797 
L 297 4666 
L 1559 4666 
L 3316 2741 
L 3316 4666 
L 4519 4666 
L 4519 2741 
L 6275 4666 
L 7538 4666 
L 5831 2797 
L 7741 0 
L 6416 0 
L 5075 1966 
L 4519 1356 
L 4519 0 
L 3316 0 
L 3316 1356 
L 2759 1966 
L 1419 0 
L 94 0 
z
" id="DejaVuSans-Bold-416" transform="scale(0.015625)"/>
      <path d="M 4031 1759 
L 4031 1441 
L 1416 1441 
Q 1456 1047 1700 850 
Q 1944 653 2381 653 
Q 2734 653 3104 758 
Q 3475 863 3866 1075 
L 3866 213 
Q 3469 63 3072 -14 
Q 2675 -91 2278 -91 
Q 1328 -91 801 392 
Q 275 875 275 1747 
Q 275 2603 792 3093 
Q 1309 3584 2216 3584 
Q 3041 3584 3536 3087 
Q 4031 2591 4031 1759 
z
M 2881 2131 
Q 2881 2450 2695 2645 
Q 2509 2841 2209 2841 
Q 1884 2841 1681 2658 
Q 1478 2475 1428 2131 
L 2881 2131 
z
" id="DejaVuSans-Bold-435" transform="scale(0.015625)"/>
      <path d="M 353 0 
L 353 800 
Q 906 913 1031 1278 
Q 1125 1556 1125 2928 
L 1125 3500 
L 4150 3500 
L 4150 0 
L 3031 0 
L 3031 2700 
L 2244 2700 
L 2244 2584 
Q 2244 1213 2028 813 
Q 1591 0 353 0 
z
" id="DejaVuSans-Bold-43b" transform="scale(0.015625)"/>
      <path d="M 25 3500 
L 3681 3500 
L 3681 2809 
L 2413 2809 
L 2413 0 
L 1297 0 
L 1297 2809 
L 25 2809 
L 25 3500 
z
" id="DejaVuSans-Bold-442" transform="scale(0.015625)"/>
      <path d="M 4154 3500 
L 5272 3500 
L 5272 0 
L 4154 0 
L 4154 3500 
z
M 2719 1094 
Q 2719 1291 2594 1388 
Q 2472 1481 2222 1481 
L 1656 1481 
L 1656 700 
L 2222 700 
Q 2469 700 2594 800 
Q 2719 897 2719 1094 
z
M 538 3500 
L 1656 3500 
L 1656 2172 
L 2291 2172 
Q 3000 2172 3381 1913 
Q 3766 1650 3766 1081 
Q 3766 513 3381 256 
Q 3000 0 2291 0 
L 538 0 
L 538 3500 
z
" id="DejaVuSans-Bold-44b" transform="scale(0.015625)"/>
      <path d="M 1422 1791 
L 159 3500 
L 1344 3500 
L 2059 2463 
L 2784 3500 
L 3969 3500 
L 2706 1797 
L 4031 0 
L 2847 0 
L 2059 1106 
L 1281 0 
L 97 0 
L 1422 1791 
z
" id="DejaVuSans-Bold-445" transform="scale(0.015625)"/>
      <path id="DejaVuSans-Bold-20" transform="scale(0.015625)"/>
      <path d="M 538 3500 
L 1656 3500 
L 1656 2316 
L 2903 3500 
L 4128 3500 
L 2634 2078 
L 4250 0 
L 3094 0 
L 1972 1447 
L 1656 1147 
L 1656 0 
L 538 0 
L 538 3500 
z
" id="DejaVuSans-Bold-43a" transform="scale(0.015625)"/>
      <path d="M 2106 1575 
Q 1756 1575 1579 1456 
Q 1403 1338 1403 1106 
Q 1403 894 1545 773 
Q 1688 653 1941 653 
Q 2256 653 2472 879 
Q 2688 1106 2688 1447 
L 2688 1575 
L 2106 1575 
z
M 3816 1997 
L 3816 0 
L 2688 0 
L 2688 519 
Q 2463 200 2181 54 
Q 1900 -91 1497 -91 
Q 953 -91 614 226 
Q 275 544 275 1050 
Q 275 1666 698 1953 
Q 1122 2241 2028 2241 
L 2688 2241 
L 2688 2328 
Q 2688 2594 2478 2717 
Q 2269 2841 1825 2841 
Q 1466 2841 1156 2769 
Q 847 2697 581 2553 
L 581 3406 
Q 941 3494 1303 3539 
Q 1666 3584 2028 3584 
Q 2975 3584 3395 3211 
Q 3816 2838 3816 1997 
z
" id="DejaVuSans-Bold-430" transform="scale(0.015625)"/>
      <path d="M 1656 506 
L 1656 -1331 
L 538 -1331 
L 538 3500 
L 1656 3500 
L 1656 2988 
Q 1888 3294 2169 3439 
Q 2450 3584 2816 3584 
Q 3463 3584 3878 3070 
Q 4294 2556 4294 1747 
Q 4294 938 3878 423 
Q 3463 -91 2816 -91 
Q 2450 -91 2169 54 
Q 1888 200 1656 506 
z
M 2400 2772 
Q 2041 2772 1848 2508 
Q 1656 2244 1656 1747 
Q 1656 1250 1848 986 
Q 2041 722 2400 722 
Q 2759 722 2948 984 
Q 3138 1247 3138 1747 
Q 3138 2247 2948 2509 
Q 2759 2772 2400 2772 
z
" id="DejaVuSans-Bold-440" transform="scale(0.015625)"/>
      <path d="M 2203 2784 
Q 1831 2784 1636 2517 
Q 1441 2250 1441 1747 
Q 1441 1244 1636 976 
Q 1831 709 2203 709 
Q 2569 709 2762 976 
Q 2956 1244 2956 1747 
Q 2956 2250 2762 2517 
Q 2569 2784 2203 2784 
z
M 2203 3584 
Q 3106 3584 3614 3096 
Q 4122 2609 4122 1747 
Q 4122 884 3614 396 
Q 3106 -91 2203 -91 
Q 1297 -91 786 396 
Q 275 884 275 1747 
Q 275 2609 786 3096 
Q 1297 3584 2203 3584 
z
" id="DejaVuSans-Bold-43e" transform="scale(0.015625)"/>
      <path d="M 2550 0 
L 2550 1353 
L 1400 1353 
Q 931 1353 672 1629 
Q 413 1906 413 2450 
L 413 3500 
L 1531 3500 
L 1531 2878 
Q 1531 2322 1622 2183 
Q 1713 2044 1950 2044 
L 2550 2044 
L 2550 3500 
L 3669 3500 
L 3669 0 
L 2550 0 
z
" id="DejaVuSans-Bold-447" transform="scale(0.015625)"/>
     </defs>
     <use xlink:href="#DejaVuSans-Bold-416"/>
     <use x="122.412109" xlink:href="#DejaVuSans-Bold-435"/>
     <use x="190.234375" xlink:href="#DejaVuSans-Bold-43b"/>
     <use x="263.476562" xlink:href="#DejaVuSans-Bold-442"/>
     <use x="321.435547" xlink:href="#DejaVuSans-Bold-44b"/>
     <use x="411.865234" xlink:href="#DejaVuSans-Bold-445"/>
     <use x="476.367188" xlink:href="#DejaVuSans-Bold-20"/>
     <use x="511.181641" xlink:href="#DejaVuSans-Bold-43a"/>
     <use x="579.052734" xlink:href="#DejaVuSans-Bold-430"/>
     <use x="646.533203" xlink:href="#DejaVuSans-Bold-440"/>
     <use x="718.115234" xlink:href="#DejaVuSans-Bold-442"/>
     <use x="776.074219" xlink:href="#DejaVuSans-Bold-43e"/>
     <use x="844.775391" xlink:href="#DejaVuSans-Bold-447"/>
     <use x="913.427734" xlink:href="#DejaVuSans-Bold-435"/>
     <use x="981.25" xlink:href="#DejaVuSans-Bold-43a"/>
    </g>
   </g>
  </g>
 </g>
 <defs>
  <clipPath id="pb0b72a7ad0">
   <rect height="608.4" width="1025.275" x="115.925" y="28.8"/>
  </clipPath>
 </defs>
</svg>
