<svg version="1.1" xmlns="http://www.w3.org/2000/svg" xmlns:xlink="http://www.w3.org/1999/xlink" style="enable-background:new 0 0 320.9 236.7;" xml:space="preserve" width="191.70165824890137" height="191.21546983718878"><rect id="backgroundrect" width="100%" height="100%" x="0" y="0" fill="none" stroke="none"/>
<style type="text/css">
	.st0{fill:#FFFFFF;stroke:#000000;stroke-width:1.09;}
	.st1{fill:#E30613;}
	.st2{fill:#140E0C;}
	.st3{fill:#E8E4D9;}
	.st4{fill:#FBB800;}
</style>





<g class="currentLayer" style=""><title>Layer 1</title><path id="big-circle" class="st0" d="M189.7591094970703,95.64806938171387 c0,-51.900001525878906 -42.099998474121094,-94 -94,-94 s-94,42.099998474121094 -94,94 s42.099998474121094,94 94,94 C147.65911865234375,189.64806938171387 189.7591094970703,147.54806327819824 189.7591094970703,95.64806938171387 "/><path id="red-circle" class="st1" d="M157.65911865234375,142.19556999206543 l-1.100000023841858,1.2000000476837158 l2,1.899999976158142 l1.100000023841858,-1.100000023841858 c0.699999988079071,-0.5 0.699999988079071,-1.5 0.20000000298023224,-2.200000047683716 c0,0 -0.10000000149011612,-0.10000000149011612 -0.10000000149011612,-0.10000000149011612 C159.05911254882812,141.29557609558105 158.2591094970703,141.49557304382324 157.65911865234375,142.19556999206543 M39.95911407470703,147.89558219909668 c-1.2000000476837158,1.399999976158142 -1.100000023841858,3.5 0.30000001192092896,4.699999809265137 c1.399999976158142,1.2000000476837158 3.5,1.100000023841858 4.699999809265137,-0.30000001192092896 c1.2000000476837158,-1.2999999523162842 1.100000023841858,-3.299999952316284 -0.10000000149011612,-4.5 c-1.2999999523162842,-1.2999999523162842 -3.4000000953674316,-1.2999999523162842 -4.699999809265137,-0.10000000149011612 C40.059112548828125,147.79557609558105 40.059112548828125,147.89558219909668 39.95911407470703,147.89558219909668 M156.2591094970703,139.19556999206543 c-0.5,-0.4000000059604645 -1.2000000476837158,-0.4000000059604645 -1.7000000476837158,0.10000000149011612 c0,0 -0.10000000149011612,0.10000000149011612 -0.10000000149011612,0.10000000149011612 l-1.100000023841858,1.100000023841858 l1.7999999523162842,1.600000023841858 l1,-1.100000023841858 C156.65911865234375,140.59557914733887 156.7591094970703,139.79557609558105 156.2591094970703,139.19556999206543 C156.2591094970703,139.29557609558105 156.15911865234375,139.29557609558105 156.2591094970703,139.19556999206543 M179.15911865234375,95.0955867767334 c0.4000000059604645,-0.6000000238418579 0.6000000238418579,-1.2000000476837158 0.6000000238418579,-1.899999976158142 c0.10000000149011612,-1.899999976158142 -1.399999976158142,-3.4000000953674316 -3.299999952316284,-3.5 c-1.899999976158142,-0.10000000149011612 -3.4000000953674316,1.399999976158142 -3.5,3.299999952316284 c-0.10000000149011612,1.899999976158142 1.399999976158142,3.4000000953674316 3.200000047683716,3.5 c0.10000000149011612,0 0.30000001192092896,0 0.4000000059604645,0 l-2.0999999046325684,3.5999999046325684 h1.7000000476837158 L179.15911865234375,95.0955867767334 zM170.55911254882812,96.99558067321777 c0,-1.100000023841858 -0.6000000238418579,-2.0999999046325684 -1.5,-2.700000047683716 c0.5,-0.5 0.800000011920929,-1.100000023841858 0.800000011920929,-1.7999999523162842 c0,-1.5 -1.2000000476837158,-2.5999999046325684 -2.5999999046325684,-2.5999999046325684 c-1.5,0 -2.5999999046325684,1.2000000476837158 -2.5999999046325684,2.5999999046325684 c0,0.699999988079071 0.30000001192092896,1.2999999523162842 0.699999988079071,1.7999999523162842 c-1,0.5 -1.5,1.600000023841858 -1.5,2.700000047683716 c0.10000000149011612,1.899999976158142 1.7000000476837158,3.299999952316284 3.5999999046325684,3.200000047683716 C169.05911254882812,100.0955867767334 170.45912170410156,98.69558525085449 170.55911254882812,96.99558067321777 M161.15911865234375,140.39558219909668 c-0.8999999761581421,-0.800000011920929 -2.200000047683716,-0.8999999761581421 -3.200000047683716,-0.20000000298023224 c0.4000000059604645,-1 0.20000000298023224,-2.0999999046325684 -0.6000000238418579,-2.799999952316284 c-1,-1 -2.5999999046325684,-0.8999999761581421 -4.099999904632568,0.699999988079071 l-2.5999999046325684,2.799999952316284 l7.699999809265137,7.199999809265137 l2.700000047683716,-2.9000000953674316 c1.2999999523162842,-1.2000000476837158 1.399999976158142,-3.299999952316284 0.20000000298023224,-4.699999809265137 C161.2591094970703,140.39558219909668 161.2591094970703,140.39558219909668 161.15911865234375,140.39558219909668 M152.05911254882812,149.89558219909668 l-4.5,-5.099999904632568 l-1.600000023841858,1.399999976158142 l4.300000190734863,5 c0.800000011920929,0.699999988079071 0.8999999761581421,2 0.20000000298023224,2.799999952316284 c-0.10000000149011612,0.10000000149011612 -0.20000000298023224,0.20000000298023224 -0.30000001192092896,0.30000001192092896 c-0.800000011920929,0.800000011920929 -2,0.800000011920929 -2.799999952316284,0 c-0.10000000149011612,-0.10000000149011612 -0.20000000298023224,-0.20000000298023224 -0.30000001192092896,-0.30000001192092896 l-4.300000190734863,-5 l-1.600000023841858,1.399999976158142 l4.5,5.099999904632568 c1.7000000476837158,1.7000000476837158 4.400000095367432,1.7000000476837158 6.099999904632568,0 C153.15911865234375,153.99557304382324 153.35911560058594,151.59557914733887 152.05911254882812,149.89558219909668 M144.35911560058594,161.09557914733887 l-1,-1.5 l-3.5,2.4000000953674316 l-4.900000095367432,-7.300000190734863 l-1.7999999523162842,1.2000000476837158 l5.900000095367432,8.800000190734863 L144.35911560058594,161.09557914733887 L144.35911560058594,161.09557914733887 zM133.2591094970703,164.49557304382324 l-2,-0.10000000149011612 c0.10000000149011612,1.399999976158142 -0.6000000238418579,2.799999952316284 -1.899999976158142,3.299999952316284 c-1.600000023841858,0.699999988079071 -3.5,0.10000000149011612 -4.400000095367432,-2 c-0.8999999761581421,-1.5 -0.30000001192092896,-3.5 1.2000000476837158,-4.300000190734863 c0.10000000149011612,-0.10000000149011612 0.30000001192092896,-0.20000000298023224 0.4000000059604645,-0.20000000298023224 c1,-0.5 2.0999999046325684,-0.4000000059604645 3.0999999046325684,0.20000000298023224 l0.800000011920929,-1.899999976158142 c-1.399999976158142,-0.699999988079071 -3.0999999046325684,-0.800000011920929 -4.599999904632568,-0.10000000149011612 c-2.700000047683716,1.100000023841858 -4.099999904632568,4.300000190734863 -2.9000000953674316,7 c0,0.10000000149011612 0.10000000149011612,0.20000000298023224 0.10000000149011612,0.30000001192092896 c1,2.700000047683716 4,4 6.699999809265137,3 c0.10000000149011612,0 0.20000000298023224,-0.10000000149011612 0.30000001192092896,-0.10000000149011612 C132.05911254882812,168.69556999206543 133.2591094970703,166.69556999206543 133.2591094970703,164.49557304382324 M115.65911865234375,174.79557609558105 l-0.4000000059604645,-1.7999999523162842 l-4.199999809265137,0.800000011920929 l-1.7000000476837158,-8.600000381469727 l-2.0999999046325684,0.4000000059604645 l2.0999999046325684,10.399999618530273 L115.65911865234375,174.79557609558105 zM104.45912170410156,176.79557609558105 l-0.10000000149011612,-1.7999999523162842 l-4.199999809265137,0.20000000298023224 l-0.5,-8.800000190734863 l-2.0999999046325684,0.10000000149011612 l0.6000000238418579,10.600000381469727 C98.15911865234375,177.19556999206543 104.45912170410156,176.79557609558105 104.45912170410156,176.79557609558105 zM157.15911865234375,95.0955867767334 c0,-3.5999999046325684 -0.30000001192092896,-7.199999809265137 -0.8999999761581421,-10.800000190734863 c-0.20000000298023224,-1 -0.5,-2.200000047683716 -0.5,-2.200000047683716 l3.5,-12.199999809265137 c0.800000011920929,-2.5999999046325684 1.100000023841858,-3.299999952316284 0.6000000238418579,-4 c-0.20000000298023224,-0.30000001192092896 -0.5,-0.699999988079071 -1.7000000476837158,-1 l-10.5,-2.5999999046325684 l-0.30000001192092896,-0.6000000238418579 c-18.399999618530273,-28.5 -56.400001525878906,-36.599998474121094 -84.80000305175781,-18.200000762939453 c-7.400000095367432,4.800000190734863 -13.600000381469727,11 -18.299999237060547,18.399999618530273 l-0.20000000298023224,0.4000000059604645 L33.35911560058594,64.99558067321777 c-1.2000000476837158,0.30000001192092896 -1.5,0.800000011920929 -1.7000000476837158,1 c-0.4000000059604645,0.699999988079071 -0.10000000149011612,1.399999976158142 0.6000000238418579,4 l3.5,12.199999809265137 c0,0 -0.30000001192092896,1.100000023841858 -0.5,2.0999999046325684 c-0.6000000238418579,3.5999999046325684 -1,7.199999809265137 -1,10.899999618530273 c-0.4000000059604645,33.900001525878906 26.700000762939453,61.70000076293945 60.599998474121094,62.20000076293945 s61.70000076293945,-26.700000762939453 62.20000076293945,-60.599998474121094 C157.15911865234375,96.19558525085449 157.15911865234375,95.69558525085449 157.15911865234375,95.0955867767334 M93.25910949707031,177.39558219909668 l-3,-11 l-2,-0.20000000298023224 l-5.199999809265137,10.100000381469727 l2.299999952316284,0.20000000298023224 l1.100000023841858,-2.299999952316284 l3.9000000953674316,0.4000000059604645 l0.6000000238418579,2.5 L93.25910949707031,177.39558219909668 L93.25910949707031,177.39558219909668 zM78.45912170410156,164.59557914733887 l-3.700000047683716,-1 l-2.799999952316284,10.199999809265137 l3.799999952316284,1.100000023841858 c1.7000000476837158,0.6000000238418579 3.5999999046325684,-0.30000001192092896 4.300000190734863,-2 c0,-0.10000000149011612 0,-0.10000000149011612 0,-0.20000000298023224 c0.30000001192092896,-1.2000000476837158 -0.20000000298023224,-2.4000000953674316 -1.2999999523162842,-2.9000000953674316 c1.100000023841858,-0.10000000149011612 2,-0.800000011920929 2.200000047683716,-1.7999999523162842 C81.35911560058594,166.59557914733887 80.55911254882812,165.19556999206543 78.45912170410156,164.59557914733887 M70.75910949707031,162.39558219909668 l-8,-3.5999999046325684 l-0.800000011920929,1.7000000476837158 l3,1.399999976158142 l-3.5999999046325684,8 l1.899999976158142,0.8999999761581421 l3.700000047683716,-8 l3,1.399999976158142 L70.75910949707031,162.39558219909668 L70.75910949707031,162.39558219909668 zM56.15911865234375,154.39558219909668 c-2.5999999046325684,-1.7000000476837158 -6,-1 -7.699999809265137,1.600000023841858 c-1.7000000476837158,2.5999999046325684 -1,6 1.600000023841858,7.699999809265137 s6,1 7.699999809265137,-1.600000023841858 c0,0 0.10000000149011612,-0.10000000149011612 0.10000000149011612,-0.10000000149011612 c1.7000000476837158,-2.5 1,-5.800000190734863 -1.399999976158142,-7.5 C56.259117126464844,154.39558219909668 56.259117126464844,154.39558219909668 56.15911865234375,154.39558219909668 M46.15911865234375,154.19556999206543 c2.0999999046325684,-2.0999999046325684 2.0999999046325684,-5.599999904632568 0,-7.699999809265137 c-2.0999999046325684,-2.0999999046325684 -5.599999904632568,-2.0999999046325684 -7.699999809265137,0 c-2.0999999046325684,2.0999999046325684 -2.0999999046325684,5.5 -0.10000000149011612,7.699999809265137 c2,2.200000047683716 5.5,2.299999952316284 7.599999904632568,0.20000000298023224 C46.059112548828125,154.29557609558105 46.059112548828125,154.29557609558105 46.15911865234375,154.19556999206543 M34.65911865234375,139.99557304382324 l2.0999999046325684,-1.5 l2.5,3.5 l1.5,-1.100000023841858 l-3.799999952316284,-5.199999809265137 l-8.5,6.300000190734863 l1.2999999523162842,1.7000000476837158 l3.5,-2.5999999046325684 l2,2.799999952316284 l1.5,-1.100000023841858 C36.65911865234375,142.79557609558105 34.65911865234375,139.99557304382324 34.65911865234375,139.99557304382324 zM25.65911865234375,96.99558067321777 c0,-1.100000023841858 -0.6000000238418579,-2.0999999046325684 -1.5,-2.700000047683716 c0.5,-0.5 0.800000011920929,-1.100000023841858 0.800000011920929,-1.7999999523162842 c-0.10000000149011612,-1.5 -1.2999999523162842,-2.5999999046325684 -2.799999952316284,-2.5 c-1.2999999523162842,0.10000000149011612 -2.4000000953674316,1.100000023841858 -2.5,2.5 c0,0.699999988079071 0.20000000298023224,1.2999999523162842 0.699999988079071,1.7999999523162842 c-1,0.5 -1.5,1.600000023841858 -1.5,2.700000047683716 c0,1.7999999523162842 1.5,3.299999952316284 3.299999952316284,3.200000047683716 c0,0 0.10000000149011612,0 0.10000000149011612,0 c1.7999999523162842,0.10000000149011612 3.299999952316284,-1.2999999523162842 3.4000000953674316,-3.0999999046325684 C25.65911865234375,97.0955867767334 25.65911865234375,96.99558067321777 25.65911865234375,96.99558067321777 M15.459114074707031,89.99558067321777 l-1.600000023841858,1 v9.199999809265137 h1.600000023841858 V89.99558067321777 L15.459114074707031,89.99558067321777 zM29.45911407470703,46.0955867767334 l10.800000190734863,9 l3.4000000953674316,-4 c1.7000000476837158,-1.7999999523162842 1.600000023841858,-4.599999904632568 -0.10000000149011612,-6.199999809265137 c-0.10000000149011612,-0.10000000149011612 -0.10000000149011612,-0.10000000149011612 -0.20000000298023224,-0.20000000298023224 c-1.2000000476837158,-1.100000023841858 -3.0999999046325684,-1.100000023841858 -4.300000190734863,0 c0.5,-1.2999999523162842 0.10000000149011612,-2.799999952316284 -0.8999999761581421,-3.700000047683716 c-1.399999976158142,-1.2000000476837158 -3.5999999046325684,-1 -5.400000095367432,1.2000000476837158 L29.45911407470703,46.0955867767334 zM41.559112548828125,33.19558143615723 l8.800000190734863,11 l2.200000047683716,-1.7999999523162842 l-3.5,-4.300000190734863 l1,-0.800000011920929 l5.900000095367432,2.4000000953674316 l2.700000047683716,-2.200000047683716 l-6.599999904632568,-2.5999999046325684 c0.800000011920929,-1.5 0.699999988079071,-3.299999952316284 -0.4000000059604645,-4.599999904632568 c-1.399999976158142,-1.7999999523162842 -3.799999952316284,-2.0999999046325684 -6,-0.4000000059604645 L41.559112548828125,33.19558143615723 zM56.559112548828125,22.695581436157227 l6.099999904632568,12.699999809265137 l7.800000190734863,-3.799999952316284 l-1,-2.200000047683716 l-5.300000190734863,2.5 l-1.5,-3.0999999046325684 l4.099999904632568,-2 l-1,-2.200000047683716 l-4.099999904632568,2 l-1.5,-3.0999999046325684 l5.099999904632568,-2.5 l-1,-2.200000047683716 l-7.699999809265137,3.700000047683716 H56.559112548828125 zM72.15911865234375,16.29557991027832 l3.0999999046325684,13.699999809265137 l2.799999952316284,-0.6000000238418579 l-2,-8.600000381469727 l8.399999618530273,7.199999809265137 l2.5999999046325684,-0.6000000238418579 l-3.0999999046325684,-13.699999809265137 l-2.799999952316284,0.6000000238418579 l2,8.699999809265137 l-8.399999618530273,-7.199999809265137 L72.15911865234375,16.29557991027832 zM90.05911254882812,15.29557991027832 h4.400000095367432 L94.35911560058594,26.995580673217773 h2.799999952316284 l0.10000000149011612,-11.699999809265137 h4.400000095367432 v-2.4000000953674316 l-11.600000381469727,-0.10000000149011612 V15.29557991027832 L90.05911254882812,15.29557991027832 zM105.55911254882812,27.595579147338867 l2.799999952316284,0.5 l1.100000023841858,-5.699999809265137 l4.5,0.8999999761581421 l0.5,-2.4000000953674316 l-4.5,-0.8999999761581421 l0.6000000238418579,-3.4000000953674316 l5.599999904632568,1.100000023841858 l0.5,-2.4000000953674316 l-8.399999618530273,-1.600000023841858 C108.15911865234375,13.79557991027832 105.55911254882812,27.595579147338867 105.55911254882812,27.595579147338867 zM122.45912170410156,33.09557914733887 c3.5999999046325684,1.600000023841858 7.900000095367432,-0.10000000149011612 9.399999618530273,-3.700000047683716 c0,-0.10000000149011612 0.10000000149011612,-0.20000000298023224 0.10000000149011612,-0.30000001192092896 c1.5,-3.700000047683716 -0.20000000298023224,-7.900000095367432 -3.9000000953674316,-9.5 s-7.900000095367432,0.20000000298023224 -9.5,3.9000000953674316 l0,0 c-1.600000023841858,3.5999999046325684 0,7.800000190734863 3.5999999046325684,9.5 C122.25910949707031,32.99558067321777 122.35911560058594,32.99558067321777 122.45912170410156,33.09557914733887 M140.7591094970703,26.395578384399414 l-8.5,11.199999809265137 l2.200000047683716,1.7000000476837158 l3.4000000953674316,-4.400000095367432 l1,0.800000011920929 l-0.8999999761581421,6.300000190734863 l2.700000047683716,2.0999999046325684 l0.8999999761581421,-7.099999904632568 c1.600000023841858,0.4000000059604645 3.4000000953674316,-0.10000000149011612 4.400000095367432,-1.5 c1.399999976158142,-1.7999999523162842 1.2000000476837158,-4.199999809265137 -1.100000023841858,-5.900000095367432 L140.7591094970703,26.395578384399414 L140.7591094970703,26.395578384399414 zM154.35911560058594,37.59557914733887 l-10,9.899999618530273 l3.299999952316284,3.299999952316284 c2.5999999046325684,2.9000000953674316 7.099999904632568,3.200000047683716 10,0.6000000238418579 c0.10000000149011612,-0.10000000149011612 0.20000000298023224,-0.20000000298023224 0.30000001192092896,-0.30000001192092896 c2.700000047683716,-2.5999999046325684 2.799999952316284,-6.900000095367432 0.20000000298023224,-9.600000381469727 c-0.10000000149011612,-0.10000000149011612 -0.20000000298023224,-0.20000000298023224 -0.30000001192092896,-0.30000001192092896 L154.35911560058594,37.59557914733887 L154.35911560058594,37.59557914733887 zM186.35911560058594,95.0955867767334 c0,50 -40.599998474121094,90.5999984741211 -90.5999984741211,90.5999984741211 s-90.5999984741211,-40.599998474121094 -90.5999984741211,-90.5999984741211 c0,-50 40.5,-90.5999984741211 90.5999984741211,-90.5999984741211 C145.85911560058594,4.595579147338867 186.35911560058594,45.0955867767334 186.35911560058594,95.0955867767334 M123.45912170410156,30.595579147338867 c2.299999952316284,0.8999999761581421 4.800000190734863,-0.10000000149011612 5.800000190734863,-2.4000000953674316 c0,-0.10000000149011612 0.10000000149011612,-0.20000000298023224 0.10000000149011612,-0.30000001192092896 c1.100000023841858,-2.200000047683716 0.30000001192092896,-4.800000190734863 -1.899999976158142,-6 c-2.200000047683716,-1.100000023841858 -4.800000190734863,-0.30000001192092896 -6,1.899999976158142 c-0.10000000149011612,0.20000000298023224 -0.20000000298023224,0.4000000059604645 -0.30000001192092896,0.6000000238418579 c-1.100000023841858,2.200000047683716 -0.20000000298023224,4.800000190734863 1.899999976158142,5.900000095367432 C123.25910949707031,30.595579147338867 123.35911560058594,30.595579147338867 123.45912170410156,30.595579147338867 M143.65911865234375,33.895578384399414 c0.6000000238418579,-0.800000011920929 0.5,-1.899999976158142 -0.30000001192092896,-2.5 c-0.10000000149011612,0 -0.10000000149011612,-0.10000000149011612 -0.20000000298023224,-0.10000000149011612 l-1.600000023841858,-1.2000000476837158 l-2.200000047683716,2.9000000953674316 l1.600000023841858,1.100000023841858 c0.800000011920929,0.699999988079071 2,0.6000000238418579 2.700000047683716,-0.10000000149011612 C143.55911254882812,33.99558067321777 143.65911865234375,33.895578384399414 143.65911865234375,33.895578384399414 M176.35911560058594,91.29558372497559 c-1,0 -1.7999999523162842,0.699999988079071 -1.7999999523162842,1.7000000476837158 c0,0 0,0.10000000149011612 0,0.10000000149011612 c0,1 0.800000011920929,1.7999999523162842 1.7999999523162842,1.7999999523162842 c1,0 1.7999999523162842,-0.800000011920929 1.7999999523162842,-1.7999999523162842 C178.15911865234375,92.0955867767334 177.35911560058594,91.29558372497559 176.35911560058594,91.29558372497559 M167.15911865234375,95.0955867767334 c-1,0 -1.7999999523162842,0.8999999761581421 -1.7999999523162842,1.899999976158142 c0,1 0.8999999761581421,1.7999999523162842 1.899999976158142,1.7999999523162842 c1,0 1.7999999523162842,-0.800000011920929 1.7999999523162842,-1.7999999523162842 c0,-1 -0.699999988079071,-1.7999999523162842 -1.7000000476837158,-1.7999999523162842 C167.2591094970703,95.0955867767334 167.2591094970703,95.0955867767334 167.15911865234375,95.0955867767334 M167.15911865234375,93.69558525085449 c0.699999988079071,0 1.2000000476837158,-0.5 1.2000000476837158,-1.100000023841858 c0,-0.699999988079071 -0.5,-1.2000000476837158 -1.100000023841858,-1.2000000476837158 c-0.699999988079071,0 -1.2000000476837158,0.5 -1.2000000476837158,1.100000023841858 c0,0 0,0 0,0.10000000149011612 C165.95912170410156,93.19558525085449 166.45912170410156,93.69558525085449 167.15911865234375,93.69558525085449 C167.15911865234375,93.69558525085449 167.15911865234375,93.69558525085449 167.15911865234375,93.69558525085449 M155.7591094970703,49.19558525085449 c1.7999999523162842,-1.7000000476837158 2.299999952316284,-4.300000190734863 0.30000001192092896,-6.300000190734863 l-1.5,-1.5 l-6.599999904632568,6.5 l1.5,1.5 C151.45912170410156,51.39558219909668 154.05911254882812,50.89558219909668 155.7591094970703,49.19558525085449 M49.559112548828125,32.19558143615723 c-0.6000000238418579,-0.800000011920929 -1.7000000476837158,-0.8999999761581421 -2.5,-0.30000001192092896 c0,0 -0.10000000149011612,0.10000000149011612 -0.10000000149011612,0.10000000149011612 l-1.600000023841858,1.2999999523162842 l2.299999952316284,2.9000000953674316 l1.5,-1.2000000476837158 c0.8999999761581421,-0.6000000238418579 1.100000023841858,-1.7999999523162842 0.5,-2.5999999046325684 C49.559112548828125,32.29557991027832 49.559112548828125,32.29557991027832 49.559112548828125,32.19558143615723 M22.259117126464844,95.0955867767334 c-1,0 -1.7999999523162842,0.8999999761581421 -1.7999999523162842,1.7999999523162842 c0,1 0.8999999761581421,1.7999999523162842 1.7999999523162842,1.7999999523162842 c1,0 1.7999999523162842,-0.800000011920929 1.7999999523162842,-1.7999999523162842 c0,-1 -0.800000011920929,-1.7999999523162842 -1.7000000476837158,-1.7999999523162842 C22.359115600585938,95.0955867767334 22.259117126464844,95.0955867767334 22.259117126464844,95.0955867767334 M76.75910949707031,170.39558219909668 l-1.600000023841858,-0.4000000059604645 l-0.800000011920929,2.700000047683716 l1.5,0.4000000059604645 c0.800000011920929,0.30000001192092896 1.7000000476837158,-0.10000000149011612 2,-0.8999999761581421 c0,0 0,0 0,0 C78.25910949707031,171.19556999206543 77.65911865234375,170.59557914733887 76.75910949707031,170.39558219909668 M55.15911865234375,155.99557304382324 c-1.600000023841858,-1.2000000476837158 -3.799999952316284,-0.8999999761581421 -5,0.699999988079071 c-1.2000000476837158,1.600000023841858 -0.8999999761581421,3.799999952316284 0.699999988079071,5 c1.600000023841858,1.2000000476837158 3.799999952316284,0.8999999761581421 5,-0.699999988079071 c0.10000000149011612,-0.10000000149011612 0.10000000149011612,-0.10000000149011612 0.10000000149011612,-0.20000000298023224 c1.100000023841858,-1.5 0.800000011920929,-3.5999999046325684 -0.699999988079071,-4.699999809265137 C55.259117126464844,156.09557914733887 55.259117126464844,155.99557304382324 55.15911865234375,155.99557304382324 M22.259117126464844,93.69558525085449 c0.6000000238418579,-0.10000000149011612 1.100000023841858,-0.6000000238418579 1.100000023841858,-1.2999999523162842 c-0.10000000149011612,-0.6000000238418579 -0.5,-1 -1.100000023841858,-1.100000023841858 c-0.6000000238418579,0.10000000149011612 -1.100000023841858,0.6000000238418579 -1.100000023841858,1.2999999523162842 C21.259117126464844,93.19558525085449 21.65911865234375,93.69558525085449 22.259117126464844,93.69558525085449 M34.45911407470703,43.99558067321777 l-1.2999999523162842,1.600000023841858 l2.4000000953674316,2 l1.2999999523162842,-1.5 c0.6000000238418579,-0.699999988079071 0.6000000238418579,-1.7000000476837158 0,-2.4000000953674316 c0,0 -0.10000000149011612,-0.10000000149011612 -0.10000000149011612,-0.10000000149011612 c-0.699999988079071,-0.5 -1.600000023841858,-0.4000000059604645 -2.200000047683716,0.20000000298023224 C34.559112548828125,43.99558067321777 34.559112548828125,43.99558067321777 34.45911407470703,43.99558067321777 M77.85911560058594,166.29557609558105 l-1.5,-0.4000000059604645 l-0.699999988079071,2.299999952316284 l1.399999976158142,0.4000000059604645 c0.699999988079071,0.20000000298023224 1.399999976158142,-0.10000000149011612 1.600000023841858,-0.800000011920929 c0,0 0,-0.10000000149011612 0,-0.10000000149011612 c0.20000000298023224,-0.6000000238418579 -0.20000000298023224,-1.2999999523162842 -0.800000011920929,-1.399999976158142 C77.95912170410156,166.29557609558105 77.85911560058594,166.29557609558105 77.85911560058594,166.29557609558105 M87.45912170410156,172.29557609558105 l2.4000000953674316,0.20000000298023224 l-0.8999999761581421,-3.4000000953674316 L87.45912170410156,172.29557609558105 zM41.559112548828125,49.89558219909668 l-1.2999999523162842,1.600000023841858 l-2.799999952316284,-2.4000000953674316 l1.399999976158142,-1.7000000476837158 c0.800000011920929,-0.8999999761581421 1.7999999523162842,-1.2999999523162842 2.799999952316284,-0.5 c0.800000011920929,0.699999988079071 0.8999999761581421,2 0.20000000298023224,2.799999952316284 C41.65911865234375,49.795583724975586 41.65911865234375,49.89558219909668 41.559112548828125,49.89558219909668 "/><path id="middle-black-border" class="st2" d="M48.85911560058594,63.848066329956055 c17.600000381469727,-26 52.900001525878906,-32.79999923706055 78.80000305175781,-15.199999809265137 c6.099999904632568,4.099999904632568 11.300000190734863,9.399999618530273 15.399999618530273,15.5 l2.200000047683716,-0.8999999761581421 c-17.799999237060547,-27.299999237060547 -54.400001525878906,-34.900001525878906 -81.69999694824219,-17 c-6.699999809265137,4.400000095367432 -12.399999618530273,10.100000381469727 -16.899999618530273,16.799999237060547 L48.85911560058594,63.848066329956055 L48.85911560058594,63.848066329956055 zM37.65911865234375,85.04806327819824 c-5.900000095367432,32.099998474121094 15.300000190734863,62.900001525878906 47.400001525878906,68.80000305175781 s62.900001525878906,-15.300000190734863 68.80000305175781,-47.400001525878906 c0.699999988079071,-3.5 1,-7.199999809265137 1,-10.800000190734863 c0,-3.5999999046325684 -0.30000001192092896,-7.199999809265137 -1,-10.699999809265137 h-2.299999952316284 c0.699999988079071,3.5 1,7.099999904632568 1,10.699999809265137 c0,31.399999618530273 -25.399999618530273,56.79999923706055 -56.70000076293945,56.900001525878906 s-56.79999923706055,-25.399999618530273 -56.900001525878906,-56.70000076293945 c0,-3.5999999046325684 0.30000001192092896,-7.199999809265137 1,-10.800000190734863 L37.65911865234375,85.04806327819824 z"/><path id="grey-lines" class="st3" d="M53.559112548828125,98.54806327819824 v30 l1,-0.20000000298023224 v-29.799999237060547 L53.559112548828125,98.54806327819824 zM54.559112548828125,66.34806632995605 V59.348066329956055 l-1,1 v5.599999904632568 L54.559112548828125,66.34806632995605 L54.559112548828125,66.34806632995605 zM87.05911254882812,55.04806327819824 v7.5 l1,-0.5 v-5.300000190734863 L87.05911254882812,55.04806327819824 L87.05911254882812,55.04806327819824 zM87.05911254882812,134.64806938171387 v15.5 l1,0.20000000298023224 v-14.800000190734863 L87.05911254882812,134.64806938171387 L87.05911254882812,134.64806938171387 zM88.05911254882812,50.44806480407715 v-9.300000190734863 l-1,0.20000000298023224 v8.5 C87.05911254882812,49.848066329956055 88.05911254882812,50.44806480407715 88.05911254882812,50.44806480407715 zM71.35911560058594,97.64806938171387 v-2.200000047683716 l-1,0.699999988079071 v3.5999999046325684 L71.35911560058594,97.64806938171387 L71.35911560058594,97.64806938171387 zM71.35911560058594,73.24806785583496 v-4.5 l-1,-1.2000000476837158 v5.199999809265137 L71.35911560058594,73.24806785583496 L71.35911560058594,73.24806785583496 zM70.35911560058594,117.94807243347168 v26.399999618530273 l1,0.6000000238418579 v-28.700000762939453 L70.35911560058594,117.94807243347168 L70.35911560058594,117.94807243347168 zM71.35911560058594,60.64806938171387 V45.94806480407715 l-1,0.6000000238418579 v13.100000381469727 L71.35911560058594,60.64806938171387 L71.35911560058594,60.64806938171387 zM137.55911254882812,98.64806938171387 V128.34806632995605 l1,0.20000000298023224 v-30 L137.55911254882812,98.64806938171387 L137.55911254882812,98.64806938171387 zM138.65911865234375,65.94806480407715 V60.348066329956055 l-1,-1 v6.900000095367432 L138.65911865234375,65.94806480407715 L138.65911865234375,65.94806480407715 zM104.05911254882812,56.64806938171387 v5.300000190734863 l1,0.5 v-7.5 L104.05911254882812,56.64806938171387 L104.05911254882812,56.64806938171387 zM104.05911254882812,135.44807243347168 V150.34806632995605 l1,-0.20000000298023224 v-15.5 L104.05911254882812,135.44807243347168 L104.05911254882812,135.44807243347168 zM105.05911254882812,49.848066329956055 V41.348066329956055 l-1,-0.20000000298023224 v9.300000190734863 L105.05911254882812,49.848066329956055 L105.05911254882812,49.848066329956055 zM121.75910949707031,99.74806785583496 v-3.5999999046325684 l-1,-0.699999988079071 v2.200000047683716 L121.75910949707031,99.74806785583496 L121.75910949707031,99.74806785583496 zM121.75910949707031,72.74806785583496 v-5.300000190734863 l-1,1.2000000476837158 v4.5 L121.75910949707031,72.74806785583496 L121.75910949707031,72.74806785583496 zM120.75910949707031,116.24806022644043 v28.700000762939453 l1,-0.6000000238418579 v-26.399999618530273 L120.75910949707031,116.24806022644043 L120.75910949707031,116.24806022644043 zM120.75910949707031,60.64806938171387 V45.94806480407715 l1,0.6000000238418579 v13.100000381469727 L120.75910949707031,60.64806938171387 L120.75910949707031,60.64806938171387 z"/><g id="bee" class="">
	<path id="path350-7" class="st2" d="M112.35911560058594,78.34806632995605 l34.099998474121094,-13.800000190734863 l-5.900000095367432,9.399999618530273 l-28.200000762939453,6.5 L112.35911560058594,78.34806632995605 L112.35911560058594,78.34806632995605 zM112.35911560058594,82.04806327819824 v1.5 h41.099998474121094 l-13.300000190734863,-7.199999809265137 L112.35911560058594,82.04806327819824 L112.35911560058594,82.04806327819824 zM34.45911407470703,69.94806480407715 l3.200000047683716,11.300000190734863 l11.600000381469727,-6.099999904632568 c0,0 -6.099999904632568,-10.100000381469727 -6.099999904632568,-10 l-7.099999904632568,1.7999999523162842 c-1.399999976158142,0.4000000059604645 -1.7999999523162842,0.6000000238418579 -2,0.8999999761581421 C33.85911560058594,68.14806938171387 33.95911407470703,68.54806327819824 34.45911407470703,69.94806480407715 M51.35911560058594,76.24806785583496 l-13.199999809265137,7.199999809265137 h41.099998474121094 v-1.5 L51.35911560058594,76.24806785583496 L51.35911560058594,76.24806785583496 zM45.85911560058594,87.84806632995605 c0,0.4000000059604645 0.30000001192092896,0.699999988079071 0.8999999761581421,1.2999999523162842 l7.699999809265137,7.599999904632568 l6.199999809265137,-5.900000095367432 l-11.600000381469727,-4.900000095367432 l-2.299999952316284,1.2000000476837158 C46.059112548828125,87.44806480407715 45.85911560058594,87.64806938171387 45.85911560058594,87.84806632995605 M79.35911560058594,78.34806632995605 L45.35911560058594,64.54806327819824 l5.900000095367432,9.399999618530273 l28.200000762939453,6.5 L79.35911560058594,78.34806632995605 L79.35911560058594,78.34806632995605 zM51.65911865234375,85.04806327819824 l10.699999809265137,4.300000190734863 l17.100000381469727,-2.799999952316284 v-1.5 L51.65911865234375,85.04806327819824 zM63.259117126464844,91.14806938171387 c0.20000000298023224,-0.10000000149011612 -6.800000190734863,6.300000190734863 -6.800000190734863,6.300000190734863 l5.099999904632568,0.30000001192092896 c0.800000011920929,0.10000000149011612 1.7000000476837158,0 2.5,-0.10000000149011612 c0.8999999761581421,-0.30000001192092896 1.7000000476837158,-0.699999988079071 2.5999999046325684,-1.2000000476837158 c0,0 12.899999618530273,-6.900000095367432 12.899999618530273,-7 v-1.5 C79.45912170410156,87.94806480407715 63.059112548828125,91.24806785583496 63.259117126464844,91.14806938171387 M112.35911560058594,87.94806480407715 v1.5 c0,0.10000000149011612 12.899999618530273,7 12.899999618530273,7 c0.800000011920929,0.5 1.7000000476837158,0.8999999761581421 2.5,1.2999999523162842 c0.800000011920929,0.10000000149011612 1.7000000476837158,0.20000000298023224 2.5,0.10000000149011612 l5.099999904632568,-0.30000001192092896 c0,0 -7,-6.400000095367432 -6.900000095367432,-6.300000190734863 S112.35911560058594,87.94806480407715 112.35911560058594,87.94806480407715 M145.05911254882812,87.14806938171387 l-2.299999952316284,-1.2000000476837158 l-11.600000381469727,4.900000095367432 l6.199999809265137,5.900000095367432 l7.699999809265137,-7.599999904632568 c0.5,-0.6000000238418579 0.8999999761581421,-0.8999999761581421 0.8999999761581421,-1.2999999523162842 S145.65911865234375,87.44806480407715 145.05911254882812,87.14806938171387 M125.95912170410156,115.14806938171387 c-0.20000000298023224,-0.30000001192092896 -6.099999904632568,-16 -6.099999904632568,-16 c-1,-2.5 -1.899999976158142,-2.9000000953674316 -3.700000047683716,-4 l-4.099999904632568,-2.5999999046325684 l-0.20000000298023224,0.20000000298023224 l4.699999809265137,6.400000095367432 v9.300000190734863 l15.199999809265137,19.399999618530273 c2.0999999046325684,2.5999999046325684 2.0999999046325684,3.4000000953674316 5.199999809265137,3.4000000953674316 l1.899999976158142,-0.8999999761581421 l-3.5,-0.6000000238418579 C135.35911560058594,129.74806022644043 126.15911865234375,115.44807243347168 125.95912170410156,115.14806938171387 M65.85911560058594,115.14806938171387 c-0.20000000298023224,0.30000001192092896 -9.300000190734863,14.600000381469727 -9.300000190734863,14.600000381469727 l-3.5,0.6000000238418579 l1.899999976158142,0.8999999761581421 c3,0 3.0999999046325684,-0.8999999761581421 5.199999809265137,-3.4000000953674316 l15.199999809265137,-19.299999237060547 v-9.300000190734863 l4.699999809265137,-6.400000095367432 l-0.20000000298023224,-0.20000000298023224 l-4.099999904632568,2.5999999046325684 c-1.7999999523162842,1 -2.700000047683716,1.399999976158142 -3.700000047683716,4 C71.95912170410156,99.14806938171387 65.95912170410156,114.84806632995605 65.85911560058594,115.14806938171387 M157.35911560058594,67.84806632995605 c-0.20000000298023224,-0.30000001192092896 -0.6000000238418579,-0.5 -2,-0.8999999761581421 l-7.099999904632568,-1.7999999523162842 c0,-0.10000000149011612 -6.099999904632568,10 -6.099999904632568,10 l11.600000381469727,6.099999904632568 l3.299999952316284,-11.300000190734863 C157.45912170410156,68.44806480407715 157.55911254882812,68.14806938171387 157.35911560058594,67.84806632995605 M112.25910949707031,85.04806327819824 v1.5 l17.100000381469727,2.799999952316284 l10.699999809265137,-4.300000190734863 H112.25910949707031 zM111.85911560058594,75.94806480407715 l10.899999618530273,-11.800000190734863 l7,-8.5 l0.4000000059604645,-2.299999952316284 l-0.699999988079071,-0.699999988079071 l-0.8999999761581421,2.5999999046325684 L110.35911560058594,71.84806632995605 C110.35911560058594,72.04806327819824 111.85911560058594,75.84806632995605 111.85911560058594,75.94806480407715 M68.85911560058594,64.04806327819824 l10.899999618530273,11.800000190734863 c0,0 1.5,-3.9000000953674316 1.600000023841858,-4 L63.15911865234375,55.348066329956055 l-0.8999999761581421,-2.5999999046325684 l-0.699999988079071,0.699999988079071 l0.4000000059604645,2.299999952316284 L68.85911560058594,64.04806327819824 L68.85911560058594,64.04806327819824 zM80.25910949707031,48.348066329956055 l1.600000023841858,1.899999976158142 l5.099999904632568,2.799999952316284 l5.099999904632568,7.400000095367432 l-1.399999976158142,2 c0,0 -2.9000000953674316,1 -3.5,1.7000000476837158 c-0.800000011920929,1 -0.8999999761581421,4.699999809265137 -0.8999999761581421,4.699999809265137 l-2.299999952316284,1.2999999523162842 l-2.700000047683716,8 v12.600000381469727 l1.899999976158142,1.2999999523162842 l-5.699999809265137,8 V119.34806632995605 l6.300000190734863,10.699999809265137 l8.699999809265137,6.599999904632568 l3.4000000953674316,4.199999809265137 l3.299999952316284,-4.199999809265137 l8.699999809265137,-6.599999904632568 l6.400000095367432,-10.800000190734863 v-19.299999237060547 l-5.599999904632568,-8 l1.7999999523162842,-1.2000000476837158 v-12.600000381469727 l-2.700000047683716,-8 l-2.299999952316284,-1.2999999523162842 c0,0 -0.10000000149011612,-3.700000047683716 -0.8999999761581421,-4.699999809265137 c-0.6000000238418579,-0.800000011920929 -3.5,-1.7000000476837158 -3.5,-1.7000000476837158 l-1.399999976158142,-1.899999976158142 l5.199999809265137,-7.5 l5.099999904632568,-2.799999952316284 l1.600000023841858,-1.899999976158142 l-2.5,0.800000011920929 l-5.400000095367432,3 l-5.199999809265137,7.300000190734863 l-2.5999999046325684,-0.699999988079071 l-2.700000047683716,0.6000000238418579 l-5.199999809265137,-7.300000190734863 l-5.400000095367432,-3 L80.25910949707031,48.348066329956055 L80.25910949707031,48.348066329956055 zM90.65911865234375,63.24806785583496 l0.800000011920929,3.5999999046325684 l-3.5,1.399999976158142 L90.65911865234375,63.24806785583496 L90.65911865234375,63.24806785583496 zM101.05911254882812,63.24806785583496 l2.700000047683716,5 l-3.5,-1.399999976158142 L101.05911254882812,63.24806785583496 L101.05911254882812,63.24806785583496 zM95.75910949707031,77.44806480407715 l10.5,4.599999904632568 l-3.5,7.900000095367432 v-6.199999809265137 l-7,-3.5999999046325684 l-10,1.100000023841858 l0,-0.30000001192092896 L95.75910949707031,77.44806480407715 zM83.25910949707031,113.24806022644043 l6.800000190734863,2.5 h11.800000190734863 l6.800000190734863,-2.4000000953674316 l0.10000000149011612,0.20000000298023224 l-6.199999809265137,4.699999809265137 h-13.100000381469727 l-6.099999904632568,-4.699999809265137 L83.25910949707031,113.24806022644043 L83.25910949707031,113.24806022644043 z"/>
	<path id="path4656" class="st4" d="M110.45912170410156,122.14806938171387 l-8.600000381469727,3 h-12 l-8.5,-3 l3,5.199999809265137 l7.099999904632568,2.5999999046325684 l-5,-0.10000000149011612 l6.699999809265137,5.099999904632568 h5.199999809265137 l6.699999809265137,-5.099999904632568 l-5,0.10000000149011612 l7.099999904632568,-2.5999999046325684 L110.45912170410156,122.14806938171387 zM83.15911865234375,77.94806480407715 l7.199999809265137,-3.799999952316284 h11.100000381469727 l7.199999809265137,3.799999952316284 l-0.800000011920929,-2.200000047683716 l-5.199999809265137,-4.300000190734863 l4.599999904632568,1.600000023841858 l-0.5,-1.600000023841858 c0,0 -5,-2.4000000953674316 -5,-2.700000047683716 h-11.699999809265137 c-0.10000000149011612,0.20000000298023224 -5,2.700000047683716 -5,2.700000047683716 l-0.5,1.600000023841858 l4.599999904632568,-1.600000023841858 l-5.199999809265137,4.300000190734863 L83.15911865234375,77.94806480407715 L83.15911865234375,77.94806480407715 zM112.15911865234375,100.64806938171387 L112.15911865234375,100.64806938171387 l-10.100000381469727,1.2000000476837158 l7.699999809265137,-4.199999809265137 l-3,-4.199999809265137 l-4.400000095367432,2.9000000953674316 h-12.899999618530273 l-4.199999809265137,-2.799999952316284 l-3,4.199999809265137 l7.599999904632568,4.199999809265137 l-10.100000381469727,-1.2000000476837158 l0,0 v5.400000095367432 l6.5,2.4000000953674316 h19.399999618530273 l6.5,-2.4000000953674316 L112.15911865234375,100.64806938171387 L112.15911865234375,100.64806938171387 z"/>
</g></g></svg>