<?xml version="1.0" encoding="UTF-8"?>
<svg xmlns="http://www.w3.org/2000/svg" xmlns:xlink="http://www.w3.org/1999/xlink" width="447.33pt" height="447.33pt" viewBox="0 0 447.33 447.33" version="1.1">
<defs>
<clipPath id="clip1">
  <path d="M 0 0 L 447.328125 0 L 447.328125 447.328125 L 0 447.328125 Z M 0 0 "/>
</clipPath>
</defs>
<g id="surface1">
<path style="fill:none;stroke-width:20;stroke-linecap:round;stroke-linejoin:round;stroke:rgb(12.89978%,25.099182%,60.398865%);stroke-opacity:1;stroke-miterlimit:10;" d="M 2713.320313 2420.01875 L 2873.320313 2296.659375 " transform="matrix(0.1,0,0,-0.1,0,447.33)"/>
<path style="fill:none;stroke-width:20;stroke-linecap:round;stroke-linejoin:round;stroke:rgb(12.89978%,25.099182%,60.398865%);stroke-opacity:1;stroke-miterlimit:10;" d="M 1846.835938 2330.64375 L 1920 2283.339063 " transform="matrix(0.1,0,0,-0.1,0,447.33)"/>
<path style=" stroke:none;fill-rule:nonzero;fill:rgb(0%,35.699463%,66.699219%);fill-opacity:1;" d="M 380.332031 223.328125 C 380.332031 309.488281 310.488281 379.328125 224.332031 379.328125 C 138.175781 379.328125 68.332031 309.488281 68.332031 223.328125 C 68.332031 137.171875 138.175781 67.328125 224.332031 67.328125 C 310.488281 67.328125 380.332031 137.171875 380.332031 223.328125 "/>
<g clip-path="url(#clip1)" clip-rule="nonzero">
<path style="fill:none;stroke-width:100;stroke-linecap:round;stroke-linejoin:round;stroke:rgb(0%,35.699463%,66.699219%);stroke-opacity:1;stroke-miterlimit:10;" d="M 4423.320313 2236.659375 C 4423.320313 1029.003125 3444.335938 50.01875 2236.679688 50.01875 C 1028.984375 50.01875 50 1029.003125 50 2236.659375 C 50 3444.315625 1028.984375 4423.339063 2236.679688 4423.339063 C 3444.335938 4423.339063 4423.320313 3444.315625 4423.320313 2236.659375 Z M 4423.320313 2236.659375 " transform="matrix(0.1,0,0,-0.1,0,447.33)"/>
</g>
<path style=" stroke:none;fill-rule:nonzero;fill:rgb(13.699341%,12.199402%,12.5%);fill-opacity:1;" d="M 161.308594 401.710938 L 161.898438 395.777344 C 162.054688 394.117188 162.359375 392.082031 162.589844 390.449219 L 162.515625 390.417969 C 161.546875 391.75 160.410156 393.492188 159.414063 394.773438 L 155.785156 399.472656 Z M 153.257813 403.371094 L 148.878906 409.0625 L 143.058594 406.703125 L 160.78125 384.792969 L 168.195313 387.800781 L 165.859375 415.941406 L 159.742188 413.460938 L 160.410156 406.269531 L 153.257813 403.371094 "/>
<path style=" stroke:none;fill-rule:nonzero;fill:rgb(13.699341%,12.199402%,12.5%);fill-opacity:1;" d="M 181.800781 392.398438 L 187.730469 393.753906 L 182.863281 415.046875 L 193.3125 417.4375 L 192.171875 422.425781 L 175.792969 418.683594 L 181.800781 392.398438 "/>
<path style=" stroke:none;fill-rule:nonzero;fill:rgb(13.699341%,12.199402%,12.5%);fill-opacity:1;" d="M 209.390625 408.113281 L 211.386719 408.253906 C 214.617188 408.476563 216.386719 407.277344 216.523438 405.28125 C 216.667969 403.246094 215.1875 402.0625 212.433594 401.871094 C 211.074219 401.777344 210.3125 401.800781 209.828125 401.847656 Z M 208.558594 420.042969 C 209.152344 420.167969 209.871094 420.21875 210.90625 420.289063 C 213.660156 420.480469 216.171875 419.574219 216.367188 416.742188 C 216.554688 414.066406 214.195313 412.820313 211.164063 412.609375 L 209.089844 412.464844 Z M 204.082031 397.398438 C 205.699219 397.230469 208.910156 397.171875 211.984375 397.386719 C 215.695313 397.648438 217.945313 398.164063 219.859375 399.457031 C 221.664063 400.585938 222.855469 402.515625 222.679688 404.992188 C 222.515625 407.34375 220.96875 409.441406 217.855469 410.386719 L 217.847656 410.46875 C 220.863281 411.480469 222.976563 413.992188 222.734375 417.425781 C 222.5625 419.898438 221.3125 421.738281 219.542969 422.976563 C 217.476563 424.394531 214.144531 425.046875 208.796875 424.671875 C 205.804688 424.464844 203.582031 424.109375 202.238281 423.816406 L 204.082031 397.398438 "/>
<path style=" stroke:none;fill-rule:nonzero;fill:rgb(13.699341%,12.199402%,12.5%);fill-opacity:1;" d="M 237.019531 397.613281 L 238.621094 424.53125 L 232.550781 424.894531 L 230.949219 397.976563 L 237.019531 397.613281 "/>
<path style=" stroke:none;fill-rule:nonzero;fill:rgb(13.699341%,12.199402%,12.5%);fill-opacity:1;" d="M 252.621094 409.425781 C 253.675781 414.640625 256.84375 417.792969 260.84375 416.984375 C 264.882813 416.164063 266.417969 411.855469 265.378906 406.71875 C 264.40625 401.933594 261.347656 398.308594 257.230469 399.144531 C 253.152344 399.96875 251.578125 404.289063 252.621094 409.425781 Z M 271.652344 405.242188 C 273.414063 413.945313 269.253906 420.21875 261.492188 421.789063 C 253.691406 423.371094 247.863281 418.386719 246.332031 410.820313 C 244.726563 402.902344 248.625 395.949219 256.386719 394.375 C 264.503906 392.730469 270.164063 397.910156 271.652344 405.242188 "/>
<path style=" stroke:none;fill-rule:nonzero;fill:rgb(13.699341%,12.199402%,12.5%);fill-opacity:1;" d="M 284.964844 415.367188 L 274.8125 390.386719 L 281.410156 387.707031 L 290.316406 394.75 C 292.867188 396.78125 295.578125 399.308594 297.875 401.65625 L 297.945313 401.625 C 296.273438 398.460938 294.792969 395.136719 293.253906 391.355469 L 290.304688 384.09375 L 295.492188 381.984375 L 305.640625 406.960938 L 299.714844 409.371094 L 290.460938 401.90625 C 287.894531 399.835938 284.917969 397.292969 282.539063 394.847656 L 282.390625 394.90625 C 283.933594 398.164063 285.4375 401.65625 287.09375 405.734375 L 290.152344 413.253906 L 284.964844 415.367188 "/>
<path style=" stroke:none;fill-rule:nonzero;fill:rgb(13.699341%,12.199402%,12.5%);fill-opacity:1;" d="M 89.632813 108.777344 C 90.089844 108.378906 90.5625 107.835938 91.246094 107.054688 C 93.0625 104.976563 93.855469 102.425781 91.71875 100.558594 C 89.699219 98.792969 87.28125 99.921875 85.28125 102.210938 L 83.910156 103.777344 Z M 80.628906 100.90625 L 81.945313 99.402344 C 84.074219 96.960938 84.1875 94.828125 82.679688 93.511719 C 81.144531 92.167969 79.304688 92.632813 77.488281 94.710938 C 76.59375 95.734375 76.15625 96.359375 75.898438 96.773438 Z M 68.882813 98.664063 C 69.722656 97.273438 71.617188 94.683594 73.644531 92.363281 C 76.09375 89.5625 77.863281 88.082031 80.054688 87.339844 C 82.042969 86.578125 84.300781 86.796875 86.167969 88.429688 C 87.945313 89.980469 88.679688 92.484375 87.550781 95.535156 L 87.613281 95.589844 C 90.242188 93.796875 93.519531 93.632813 96.109375 95.894531 C 97.976563 97.527344 98.6875 99.636719 98.605469 101.796875 C 98.488281 104.296875 96.992188 107.347656 93.464844 111.382813 C 91.492188 113.640625 89.867188 115.195313 88.820313 116.089844 L 68.882813 98.664063 "/>
<path style=" stroke:none;fill-rule:nonzero;fill:rgb(13.699341%,12.199402%,12.5%);fill-opacity:1;" d="M 99.136719 83.582031 L 100.945313 82.003906 C 103.234375 80.003906 103.589844 77.671875 102.035156 75.894531 C 100.429688 74.058594 98.324219 74.199219 96.214844 76.042969 C 95.101563 77.015625 94.519531 77.628906 94.265625 78.011719 Z M 86.957031 78.820313 C 88.222656 77.289063 90.230469 75.214844 92.703125 73.058594 C 95.714844 70.425781 98.21875 69.035156 100.664063 68.914063 C 102.738281 68.800781 104.667969 69.664063 106.296875 71.535156 C 108.535156 74.09375 108.25 77.476563 107.058594 79.636719 L 107.136719 79.726563 C 109.050781 79.0625 110.992188 79.703125 113.136719 81.121094 C 115.796875 82.890625 118.714844 85.015625 119.789063 85.453125 L 115.09375 89.558594 C 114.265625 89.222656 112.332031 88.042969 109.574219 86.042969 C 106.765625 83.980469 105.3125 84.082031 103.386719 85.710938 L 102.03125 86.894531 L 109.007813 94.878906 L 104.460938 98.851563 L 86.957031 78.820313 "/>
<path style=" stroke:none;fill-rule:nonzero;fill:rgb(13.699341%,12.199402%,12.5%);fill-opacity:1;" d="M 111.503906 58.574219 L 127.15625 80.523438 L 122.207031 84.054688 L 106.554688 62.105469 L 111.503906 58.574219 "/>
<path style=" stroke:none;fill-rule:nonzero;fill:rgb(13.699341%,12.199402%,12.5%);fill-opacity:1;" d="M 149.84375 65.609375 C 148.515625 67.085938 145.839844 69.59375 142.734375 71.332031 C 138.441406 73.738281 134.730469 74.394531 131.414063 73.546875 C 128.132813 72.679688 125.226563 70.273438 123.289063 66.820313 C 118.945313 58.984375 122.132813 51.328125 129.84375 47.011719 C 132.882813 45.308594 135.550781 44.59375 136.996094 44.472656 L 138.285156 49.390625 C 136.660156 49.519531 134.855469 49.980469 132.273438 51.425781 C 127.839844 53.910156 125.84375 58.28125 128.71875 63.414063 C 131.453125 68.300781 136.109375 69.40625 140.46875 66.960938 C 141.65625 66.296875 142.554688 65.609375 142.875 65.199219 L 140.101563 60.246094 L 136.472656 62.277344 L 134.144531 58.125 L 142.90625 53.21875 L 149.84375 65.609375 "/>
<path style=" stroke:none;fill-rule:nonzero;fill:rgb(13.699341%,12.199402%,12.5%);fill-opacity:1;" d="M 150.230469 37.730469 L 153.835938 47.445313 L 163.25 43.953125 L 159.644531 34.238281 L 165.347656 32.125 L 174.726563 57.402344 L 169.023438 59.519531 L 165.101563 48.941406 L 155.6875 52.433594 L 159.609375 63.011719 L 153.910156 65.125 L 144.53125 39.847656 L 150.230469 37.730469 "/>
<path style=" stroke:none;fill-rule:nonzero;fill:rgb(13.699341%,12.199402%,12.5%);fill-opacity:1;" d="M 179.503906 33.894531 L 172.390625 35.445313 L 171.300781 30.441406 L 191.542969 26.03125 L 192.632813 31.035156 L 185.441406 32.601563 L 190.089844 53.9375 L 184.152344 55.230469 L 179.503906 33.894531 "/>
<path style=" stroke:none;fill-rule:nonzero;fill:rgb(13.699341%,12.199402%,12.5%);fill-opacity:1;" d="M 202.597656 38.304688 C 203.015625 43.605469 205.777344 47.121094 209.84375 46.800781 C 213.953125 46.480469 215.996094 42.386719 215.585938 37.164063 C 215.207031 32.300781 212.609375 28.332031 208.421875 28.660156 C 204.273438 28.984375 202.1875 33.078125 202.597656 38.304688 Z M 221.992188 36.460938 C 222.6875 45.3125 217.800781 51.03125 209.90625 51.652344 C 201.96875 52.273438 196.792969 46.621094 196.1875 38.925781 C 195.558594 30.871094 200.269531 24.445313 208.164063 23.824219 C 216.417969 23.179688 221.40625 29.003906 221.992188 36.460938 "/>
<path style=" stroke:none;fill-rule:nonzero;fill:rgb(13.699341%,12.199402%,12.5%);fill-opacity:1;" d="M 226.078125 50.320313 L 228.1875 23.445313 L 235.285156 24.003906 L 240.09375 34.289063 C 241.464844 37.242188 242.757813 40.714844 243.757813 43.84375 L 243.835938 43.847656 C 243.757813 40.273438 243.921875 36.636719 244.242188 32.566406 L 244.855469 24.753906 L 250.4375 25.191406 L 248.328125 52.0625 L 241.949219 51.5625 L 237.019531 40.746094 C 235.648438 37.75 234.128906 34.140625 233.097656 30.890625 L 232.941406 30.878906 C 232.859375 34.484375 232.640625 38.277344 232.296875 42.660156 L 231.660156 50.757813 L 226.078125 50.320313 "/>
<path style=" stroke:none;fill-rule:nonzero;fill:rgb(13.699341%,12.199402%,12.5%);fill-opacity:1;" d="M 275.902344 34.128906 C 274.402344 33.699219 273.222656 34.773438 272.835938 36.117188 C 272.460938 37.425781 272.707031 38.746094 273.574219 40.367188 C 275.820313 39.636719 277.042969 38.863281 277.472656 37.363281 C 277.824219 36.132813 277.480469 34.578125 275.980469 34.148438 Z M 273.78125 52.574219 C 272.65625 50.546875 271.234375 47.519531 269.765625 44.519531 C 268.457031 45.015625 267.175781 45.855469 266.691406 47.550781 C 266.050781 49.777344 267.175781 52.097656 269.90625 52.878906 C 271.367188 53.300781 272.800781 53.085938 273.78125 52.574219 Z M 276.738281 58.957031 C 276.363281 58.226563 275.992188 57.492188 275.574219 56.625 C 273.507813 57.449219 270.886719 57.738281 267.808594 56.855469 C 261.542969 55.0625 259.832031 50.574219 260.878906 46.921875 C 261.859375 43.5 264.523438 41.601563 267.9375 40.875 L 267.96875 40.757813 C 267.21875 39.171875 266.875 37.03125 267.414063 35.148438 C 268.351563 31.878906 271.988281 29.054688 277.21875 30.550781 C 281.21875 31.695313 283.546875 34.902344 282.476563 38.632813 C 281.726563 41.246094 279.539063 43.074219 275.457031 43.820313 L 275.375 43.960938 C 276.390625 46.085938 277.425781 48.417969 278.320313 50.089844 C 279.832031 48.734375 281.324219 46.582031 282.328125 44.371094 L 287.558594 45.871094 C 285.730469 49.632813 283.464844 52.605469 280.433594 54.480469 C 281.410156 56.59375 282.421875 58.714844 283.542969 60.90625 L 276.738281 58.957031 "/>
<path style=" stroke:none;fill-rule:nonzero;fill:rgb(13.699341%,12.199402%,12.5%);fill-opacity:1;" d="M 310.328125 43.609375 L 305.546875 52.796875 L 314.453125 57.429688 L 319.234375 48.242188 L 324.625 51.046875 L 312.183594 74.960938 L 306.789063 72.152344 L 311.996094 62.148438 L 303.089844 57.515625 L 297.886719 67.519531 L 292.492188 64.710938 L 304.9375 40.800781 L 310.328125 43.609375 "/>
<path style=" stroke:none;fill-rule:nonzero;fill:rgb(13.699341%,12.199402%,12.5%);fill-opacity:1;" d="M 328.054688 69.519531 C 324.886719 73.789063 324.660156 78.257813 327.9375 80.6875 C 331.246094 83.140625 335.476563 81.402344 338.597656 77.191406 C 341.503906 73.273438 342.152344 68.574219 338.78125 66.074219 C 335.441406 63.59375 331.175781 65.3125 328.054688 69.519531 Z M 343.886719 80.867188 C 338.597656 88 331.15625 89.101563 324.796875 84.382813 C 318.402344 79.640625 318.210938 71.976563 322.8125 65.777344 C 327.628906 59.289063 335.402344 57.539063 341.761719 62.257813 C 348.410156 67.191406 348.34375 74.863281 343.886719 80.867188 "/>
<path style=" stroke:none;fill-rule:nonzero;fill:rgb(13.699341%,12.199402%,12.5%);fill-opacity:1;" d="M 342.132813 98.417969 L 355.175781 73.292969 L 359.878906 78.035156 L 354.101563 88.394531 C 352.453125 91.328125 350.886719 94.066406 348.953125 96.886719 L 349.039063 96.972656 C 351.816406 95.171875 354.679688 93.515625 357.511719 91.996094 L 368.109375 86.320313 L 372.675781 90.917969 L 347.148438 103.472656 L 342.132813 98.417969 "/>
<path style=" stroke:none;fill-rule:nonzero;fill:rgb(13.699341%,12.199402%,12.5%);fill-opacity:1;" d="M 373.460938 117.5 L 367.449219 109.609375 L 362.359375 113.484375 L 369.070313 122.300781 L 365.089844 125.328125 L 354.695313 111.675781 L 376.148438 95.34375 L 386.207031 108.554688 L 382.226563 111.582031 L 375.855469 103.210938 L 371.398438 106.601563 L 377.40625 114.496094 L 373.460938 117.5 "/>
<path style=" stroke:none;fill-rule:nonzero;fill:rgb(100%,100%,100%);fill-opacity:1;" d="M 252.257813 274.992188 C 251.949219 274.96875 220.851563 272.472656 165.398438 256.960938 C 165.363281 256.949219 165.328125 256.9375 165.296875 256.925781 C 163.125 256.058594 160.425781 255.617188 157.273438 255.617188 C 147.125 255.617188 135.304688 260.15625 133.589844 260.835938 C 132.789063 261.679688 129.589844 264.40625 121.660156 264.40625 C 120.890625 264.40625 120.085938 264.378906 119.269531 264.328125 C 99.367188 263.023438 89.882813 253.664063 88.992188 252.738281 C 87.9375 251.90625 76.410156 242.617188 76.867188 234.054688 C 77.039063 230.867188 78.8125 228.207031 82.140625 226.144531 C 82.296875 226.046875 82.480469 225.996094 82.667969 225.996094 C 82.675781 225.996094 82.6875 225.996094 82.695313 225.996094 C 83.574219 226.023438 84.648438 226.035156 85.886719 226.035156 C 100.378906 226.035156 137.265625 224.386719 137.636719 224.367188 C 137.824219 224.351563 161.039063 222.128906 183.269531 213.734375 C 181.632813 210.847656 180.164063 210.097656 177.683594 208.835938 C 176.871094 208.425781 175.957031 207.957031 174.925781 207.355469 C 173.84375 206.597656 171.003906 205.75 163.191406 205.75 C 149.285156 205.75 126.464844 208.554688 114.519531 210.441406 C 100.589844 212.640625 70.351563 215.601563 70.050781 215.628906 C 64.722656 215.824219 59.785156 215.921875 55.3125 215.921875 C 35.316406 215.921875 23.425781 214.003906 20.929688 210.382813 C 20.214844 209.347656 20.476563 208.515625 20.535156 208.359375 C 20.679688 207.976563 21.042969 207.722656 21.453125 207.714844 C 21.894531 207.707031 65.6875 206.933594 88.296875 203.285156 C 110.863281 199.644531 162.3125 178.03125 162.828125 177.8125 C 163.492188 177.46875 180.96875 168.503906 197.65625 168.503906 C 203.191406 168.503906 208.039063 169.515625 212.0625 171.507813 C 226.617188 175.726563 264.523438 200.777344 270.964844 205.074219 C 274.378906 199.710938 293.644531 174.242188 352.675781 172.554688 C 353.992188 172.535156 355.269531 172.527344 356.527344 172.527344 C 405.1875 172.527344 422.214844 185.902344 422.914063 186.472656 C 423.261719 186.753906 423.378906 187.230469 423.203125 187.640625 C 423.046875 188.011719 422.679688 188.246094 422.285156 188.246094 C 422.242188 188.246094 422.203125 188.246094 422.160156 188.242188 C 418.917969 187.84375 378.421875 184.21875 376.019531 184.003906 C 374.488281 184.203125 355.710938 186.859375 336.554688 197.828125 C 322.308594 208.757813 314.683594 211.804688 314.363281 211.929688 C 312.027344 212.804688 308.894531 214.371094 307.304688 215.820313 C 307.71875 215.800781 308.136719 215.789063 308.550781 215.789063 C 320.074219 215.789063 327.722656 223.304688 328.039063 223.621094 C 328.140625 223.722656 339.21875 234.429688 347.3125 238.695313 C 364.320313 241.152344 366.878906 252.3125 366.980469 252.789063 C 367.042969 253.089844 366.964844 253.402344 366.769531 253.636719 C 366.578125 253.863281 366.296875 253.996094 366 253.996094 C 365.992188 253.996094 339.367188 253.332031 339.367188 253.332031 C 338.121094 253.449219 316.398438 255.601563 300.496094 263.535156 C 283.773438 274.203125 253.632813 274.96875 252.355469 274.996094 C 252.347656 274.996094 252.339844 274.996094 252.332031 274.996094 C 252.308594 274.996094 252.28125 274.996094 252.257813 274.992188 "/>
<path style=" stroke:none;fill-rule:nonzero;fill:rgb(0%,35.699463%,66.699219%);fill-opacity:1;" d="M 197.65625 167.503906 C 181.101563 167.503906 163.820313 176.179688 162.371094 176.921875 C 160.1875 177.835938 110.203125 198.738281 88.140625 202.296875 C 65.597656 205.933594 21.875 206.707031 21.4375 206.714844 C 20.617188 206.726563 19.890625 207.238281 19.601563 208.003906 C 19.472656 208.339844 19.132813 209.542969 20.105469 210.949219 C 22.839844 214.910156 34.683594 216.921875 55.3125 216.921875 C 59.796875 216.921875 64.746094 216.824219 70.023438 216.632813 C 70.066406 216.632813 70.105469 216.628906 70.148438 216.625 C 70.449219 216.597656 100.714844 213.632813 114.675781 211.429688 C 126.589844 209.546875 149.339844 206.75 163.191406 206.75 C 171.433594 206.75 173.691406 207.714844 174.277344 208.128906 C 174.324219 208.160156 174.371094 208.191406 174.421875 208.222656 C 175.476563 208.835938 176.40625 209.308594 177.226563 209.726563 C 179.265625 210.765625 180.519531 211.402344 181.773438 213.222656 C 160.472656 221.058594 138.664063 223.261719 137.539063 223.371094 C 135.972656 223.441406 100.113281 225.035156 85.886719 225.035156 C 84.628906 225.035156 83.566406 225.019531 82.726563 224.996094 C 82.707031 224.996094 82.6875 224.996094 82.667969 224.996094 C 82.292969 224.996094 81.929688 225.101563 81.613281 225.296875 C 77.988281 227.539063 76.058594 230.46875 75.867188 234.003906 C 75.390625 242.9375 86.941406 252.386719 88.320313 253.484375 C 89.539063 254.722656 99.292969 264.019531 119.203125 265.328125 C 120.046875 265.378906 120.871094 265.40625 121.660156 265.40625 C 129.515625 265.40625 133 262.828125 134.160156 261.6875 C 136.394531 260.8125 147.640625 256.617188 157.273438 256.617188 C 160.296875 256.617188 162.871094 257.03125 164.925781 257.855469 C 164.988281 257.878906 165.058594 257.902344 165.128906 257.921875 C 220.675781 273.464844 251.875 275.96875 252.183594 275.992188 C 252.230469 275.996094 252.28125 275.996094 252.332031 275.996094 C 252.347656 275.996094 252.363281 275.996094 252.375 275.996094 C 253.664063 275.96875 284.023438 275.195313 300.988281 264.40625 C 316.539063 256.664063 337.703125 254.496094 339.402344 254.332031 L 365.949219 254.996094 C 365.96875 254.996094 365.984375 254.996094 366 254.996094 C 366.59375 254.996094 367.15625 254.734375 367.539063 254.273438 C 367.929688 253.804688 368.082031 253.179688 367.957031 252.582031 C 367.851563 252.078125 365.164063 240.335938 347.628906 237.734375 C 339.675781 233.480469 328.835938 223 328.726563 222.894531 C 328.433594 222.601563 321.320313 215.613281 310.457031 214.855469 C 311.710938 214.144531 313.210938 213.429688 314.703125 212.867188 C 315.050781 212.734375 322.789063 209.644531 337.109375 198.664063 C 355.71875 188.019531 373.957031 185.292969 376.042969 185.007813 C 379.363281 185.304688 418.851563 188.84375 422.039063 189.234375 C 422.121094 189.242188 422.203125 189.246094 422.285156 189.246094 C 423.078125 189.246094 423.808594 188.773438 424.125 188.03125 C 424.472656 187.210938 424.238281 186.257813 423.542969 185.695313 C 422.832031 185.117188 405.539063 171.527344 356.527344 171.527344 C 355.265625 171.527344 353.984375 171.535156 352.675781 171.554688 C 318.726563 172.523438 298.015625 181.601563 286.613281 189.042969 C 277.515625 194.984375 272.714844 200.816406 270.699219 203.699219 C 262.359375 198.15625 226.648438 174.746094 212.425781 170.574219 C 208.277344 168.535156 203.3125 167.503906 197.65625 167.503906 Z M 197.65625 169.503906 C 202.605469 169.503906 207.457031 170.324219 211.699219 172.445313 C 227.242188 176.886719 271.285156 206.492188 271.285156 206.492188 C 271.285156 206.492188 287.9375 175.40625 352.707031 173.554688 C 354.003906 173.535156 355.273438 173.527344 356.527344 173.527344 C 405.394531 173.527344 422.285156 187.246094 422.285156 187.246094 C 418.902344 186.832031 376 182.996094 376 182.996094 C 376 182.996094 356.332031 185.328125 336 196.996094 C 321.667969 207.996094 314 210.996094 314 210.996094 C 314 210.996094 306 213.996094 305.332031 216.996094 C 306.4375 216.855469 307.507813 216.789063 308.550781 216.789063 C 319.792969 216.789063 327.332031 224.328125 327.332031 224.328125 C 327.332031 224.328125 338.667969 235.328125 347 239.664063 C 363.667969 241.996094 366 252.996094 366 252.996094 L 339.332031 252.328125 C 339.332031 252.328125 316.667969 254.328125 300 262.664063 C 283.335938 273.328125 252.332031 273.996094 252.332031 273.996094 C 252.332031 273.996094 221.667969 271.664063 165.667969 255.996094 C 163.191406 255.007813 160.296875 254.617188 157.273438 254.617188 C 146.035156 254.617188 133 259.996094 133 259.996094 C 133 259.996094 130.441406 263.40625 121.660156 263.40625 C 120.929688 263.40625 120.152344 263.382813 119.332031 263.328125 C 99 261.996094 89.667969 251.996094 89.667969 251.996094 C 89.667969 251.996094 68.667969 235.664063 82.667969 226.996094 C 83.554688 227.023438 84.636719 227.035156 85.886719 227.035156 C 100.570313 227.035156 137.679688 225.367188 137.679688 225.367188 C 137.679688 225.367188 161.734375 223.148438 184.683594 214.265625 C 182.089844 209.082031 179.871094 209.085938 175.429688 206.492188 C 173.648438 205.234375 169.105469 204.75 163.191406 204.75 C 148.214844 204.75 124.441406 207.863281 114.363281 209.453125 C 100.300781 211.675781 69.953125 214.636719 69.953125 214.636719 C 64.476563 214.832031 59.625 214.921875 55.3125 214.921875 C 19.113281 214.921875 21.46875 208.714844 21.46875 208.714844 C 21.46875 208.714844 65.511719 207.972656 88.457031 204.273438 C 111.402344 200.570313 163.214844 178.734375 163.214844 178.734375 C 163.214844 178.734375 181.019531 169.503906 197.65625 169.503906 "/>
<path style=" stroke:none;fill-rule:nonzero;fill:rgb(13.699341%,12.199402%,12.5%);fill-opacity:1;" d="M 323.667969 237.328125 C 323.667969 238.804688 322.027344 239.996094 320 239.996094 C 317.976563 239.996094 316.335938 238.804688 316.335938 237.328125 C 316.335938 235.855469 317.976563 234.664063 320 234.664063 C 322.027344 234.664063 323.667969 235.855469 323.667969 237.328125 "/>
<path style=" stroke:none;fill-rule:nonzero;fill:rgb(99.198914%,72.499084%,7.499695%);fill-opacity:1;" d="M 336.667969 243.328125 C 336.667969 243.328125 342.167969 247.710938 339.5 252.378906 C 342.5 251.378906 366 252.996094 366 252.996094 C 366 252.996094 366.453125 252.140625 363.847656 248.496094 C 361.195313 244.324219 353.332031 239.996094 347 239.664063 C 340.667969 239.328125 336.667969 243.328125 336.667969 243.328125 "/>
<path style=" stroke:none;fill-rule:nonzero;fill:rgb(99.198914%,72.499084%,7.499695%);fill-opacity:1;" d="M 336.667969 243.328125 C 336.667969 243.328125 342.167969 247.710938 339.5 252.378906 C 349.875 252.519531 366 252.996094 366 252.996094 "/>
</g>
</svg>
